<?xml version="1.0" encoding="utf-8"?>
<!-- Generator: Adobe Illustrator 23.1.0, SVG Export Plug-In . SVG Version: 6.00 Build 0)  -->
<svg version="1.1" id="Слой_1" xmlns="http://www.w3.org/2000/svg" xmlns:xlink="http://www.w3.org/1999/xlink" x="0px" y="0px"
	 viewBox="0 0 2048 2048" style="enable-background:new 0 0 2048 2048;" xml:space="preserve">
<style type="text/css">
	.st0{display:none;}
	.st1{display:inline;}
	.st2{fill:#4C71AE;}
	.st3{fill:#4071BA;}
</style>
<g class="st0">
	<g class="st1">
		<path class="st2" d="M525.2,923.9h12v69.6h-13.5v-38l-16,38h-9.9L481.8,956v37.5h-13.4v-69.6h12.1l22.5,51.3L525.2,923.9z"/>
		<path class="st2" d="M558.6,986.9c-5.1-5-7.6-12.4-7.6-22.1v-40.8h15v41.5c0,5.5,1.3,9.8,3.9,12.7c2.6,2.9,6.3,4.3,11.1,4.3
			s8.5-1.5,11-4.3c2.5-2.9,3.8-7.1,3.8-12.7v-41.5h15v40.8c0,9.6-2.6,17-7.7,22c-5.1,5-12.5,7.6-22.2,7.6
			C571.1,994.4,563.6,991.9,558.6,986.9z"/>
		<path class="st2" d="M671.4,923.9h15v69.6h-15v-29.2h-32.2v29.2h-15v-69.6h15v28.1h32.2V923.9z"/>
		<path class="st2" d="M753.5,993.5l-6.6-15.4h-32.5l-6.6,15.4h-15.3l32-69.6h12.3l32,69.6H753.5z M719.4,966.5h22.5l-11.2-26.1
			L719.4,966.5z"/>
		<path class="st2" d="M831.5,923.9h12v69.6h-13.5v-38l-16,38h-9.9L788.1,956v37.5h-13.4v-69.6h12.1l22.5,51.3L831.5,923.9z"/>
		<path class="st2" d="M914.7,923.9h12v69.6h-13.5v-38l-16,38h-9.9L871.2,956v37.5h-13.4v-69.6H870l22.5,51.3L914.7,923.9z"/>
		<path class="st2" d="M993.9,993.5l-6.6-15.4h-32.5l-6.6,15.4h-15.3l32-69.6H977l32,69.6H993.9z M959.8,966.5h22.5l-11.2-26.1
			L959.8,966.5z"/>
		<path class="st2" d="M1014.9,923.9h26.9c7.6,0,14.2,1.4,19.6,4.1c5.5,2.7,9.7,6.7,12.6,11.9c2.9,5.2,4.3,11.4,4.3,18.7
			c0,7.3-1.4,13.5-4.3,18.8s-7,9.2-12.5,12c-5.5,2.8-12.1,4.2-19.7,4.2h-26.9L1014.9,923.9L1014.9,923.9z M1040.8,981.2
			c14.8,0,22.3-7.5,22.3-22.6c0-14.9-7.4-22.4-22.3-22.4h-10.7v44.9H1040.8z"/>
		<path class="st2" d="M1170.9,993.5l-6.6-15.4h-32.5l-6.6,15.4h-15.3l31.9-69.6h12.3l31.9,69.6H1170.9z M1136.8,966.5h22.5
			l-11.2-26.1L1136.8,966.5z"/>
		<path class="st2" d="M1191.9,993.5v-69.6h15.2v57.2h31.1v12.4L1191.9,993.5L1191.9,993.5z"/>
		<path class="st2" d="M1244.1,972.9v-11.6h30.4v11.6H1244.1z"/>
		<path class="st2" d="M1351.7,993.5h-18.4l-30.3-32.2v32.2h-15.2v-69.6h15.2v30.6l29.2-30.6h18.2l-32.3,33.2L1351.7,993.5z"/>
		<path class="st2" d="M1401.9,923.9h14.9v69.6h-14.9v-29.2h-32.2v29.2h-14.9v-69.6h14.9v28.1h32.2V923.9z"/>
		<path class="st2" d="M1517.5,923.9h14.6l-24.7,69.6h-12.2l-16.2-46l-16.3,46h-12.2l-24.7-69.6h15.5l16,48.1l16.8-48.1h10.7
			l16.4,48.8L1517.5,923.9z"/>
		<path class="st2" d="M1587.2,993.5l-6.6-15.4H1548l-6.6,15.4H1526l31.9-69.6h12.3l31.9,69.6H1587.2z M1553.1,966.5h22.5
			l-11.2-26.1L1553.1,966.5z"/>
		<path class="st2" d="M1666.9,993.5h-16.1l-8.9-23.2c-0.7-1.8-1.8-3.1-3.3-3.8c-1.5-0.7-3.3-1.1-5.5-1.1h-9.9v28h-15.1v-69.6h31
			c8.1,0,14.2,1.8,18.4,5.3s6.3,8.6,6.3,15.1c0,4.6-1.2,8.6-3.7,11.9c-2.4,3.3-5.9,5.7-10.5,7.1c4.1,0.8,7.1,3.7,8.9,8.5
			L1666.9,993.5z M1636.9,953.8c4.4,0,7.6-0.7,9.6-2.2c2-1.5,3-3.8,3-6.9s-1-5.4-3-6.9c-2-1.5-5.2-2.2-9.6-2.2h-13.9v18.2
			L1636.9,953.8L1636.9,953.8z"/>
		<path class="st2" d="M1677.4,993.5v-69.6h15.2v69.6H1677.4z"/>
		<path class="st2" d="M1721.4,981.5h34.9v12h-51.7v-11.1l33.5-46.4h-33.5v-12h50.6v11L1721.4,981.5z"/>
		<path class="st2" d="M1823.7,923.9h12v69.6h-13.5v-38l-16,38h-9.9l-16.1-37.5v37.5h-13.4v-69.6h12.1l22.5,51.3L1823.7,923.9z"/>
		<path class="st2" d="M1849.8,993.5v-69.6h15.2v69.6H1849.8z"/>
	</g>
	<g class="st1">
		<path class="st2" d="M482.1,1121.9c-5.7-1.6-10.4-3.9-14.1-6.9l5.7-12.8c7.8,5.5,16.6,8.2,26.3,8.2c5.2,0,9.2-0.8,11.9-2.5
			c2.8-1.6,4.2-3.9,4.2-6.9c0-2.6-1.3-4.6-3.8-6.1s-7-2.9-13.4-4.3c-7.2-1.4-12.9-3.2-17.1-5.3c-4.2-2.1-7.3-4.6-9.3-7.7
			s-2.9-6.8-2.9-11.3c0-4.9,1.4-9.3,4-13.1c2.7-3.9,6.5-6.9,11.4-9.1c4.9-2.2,10.5-3.3,16.9-3.3c5.8,0,11.3,0.8,16.7,2.5
			c5.3,1.7,9.6,4,12.8,6.8l-5.7,12.8c-7.2-5.5-15-8.2-23.6-8.2c-4.6,0-8.2,0.9-11,2.7c-2.7,1.8-4.1,4.3-4.1,7.4
			c0,1.8,0.5,3.3,1.5,4.6s2.8,2.3,5.2,3.3c2.4,0.9,5.9,1.9,10.4,2.8c10.4,2.3,18,5.3,22.6,8.9s6.9,8.6,6.9,15c0,7.6-3,13.7-8.9,18.1
			s-14.2,6.7-24.8,6.7C493.7,1124.4,487.8,1123.6,482.1,1121.9z"/>
		<path class="st2" d="M546.5,1042.1h36.9c9,0,16,2.2,21,6.5c5,4.3,7.5,10.2,7.5,17.7c0,7.4-2.5,13.3-7.5,17.7
			c-5,4.4-12,6.6-20.9,6.6h-19.1v32.9h-17.8V1042.1z M581.1,1076.9c9.3,0,13.9-3.5,13.9-10.5c0-7.1-4.7-10.6-13.9-10.6h-16.8v21.1
			H581.1z"/>
		<path class="st2" d="M623.6,1123.4V1042h56.1v13.8h-38.7v19.2h36.3v13.9h-36.3v20.6h38.7v13.8L623.6,1123.4L623.6,1123.4z"/>
		<path class="st2" d="M708.6,1119.2c-6.1-3.5-10.8-8.3-14.1-14.6c-3.3-6.3-4.9-13.6-4.9-22c0-8.3,1.6-15.6,4.9-21.9
			c3.3-6.3,8-11.1,14.1-14.6c6.1-3.4,13.3-5.1,21.5-5.1c5.4,0,10.6,0.8,15.5,2.5s8.9,3.9,12,6.9l-5.6,12.8c-3.7-2.7-7.2-4.7-10.7-6
			c-3.5-1.3-7.1-1.9-10.9-1.9c-7.3,0-12.9,2.3-16.8,7s-5.8,11.4-5.8,20.3c0,9,1.9,15.8,5.8,20.5c3.9,4.7,9.5,7,16.8,7
			c3.8,0,7.4-0.6,10.9-1.9c3.5-1.3,7-3.3,10.7-6l5.6,12.8c-3.1,3-7.1,5.3-12,6.9s-10.1,2.5-15.5,2.5
			C721.9,1124.4,714.8,1122.7,708.6,1119.2z"/>
		<path class="st2" d="M770.2,1123.4V1042h17.8v81.3H770.2z"/>
		<path class="st2" d="M866.5,1123.4l-7.8-18.1h-38l-7.8,18.1H795l37.3-81.3h14.4l37.3,81.3H866.5z M826.7,1091.7h26.3l-13.1-30.5
			L826.7,1091.7z"/>
		<path class="st2" d="M891.1,1123.4V1042h17.8v66.8h36.3v14.5H891.1z"/>
		<path class="st2" d="M956.1,1123.4V1042h17.8v81.3H956.1z"/>
		<path class="st2" d="M1007.6,1109.3h40.8v14.1H988v-13l39.2-54.3H988V1042h59.2v12.9L1007.6,1109.3z"/>
		<path class="st2" d="M1060.5,1123.4V1042h56.1v13.8h-38.7v19.2h36.3v13.9h-36.3v20.6h38.7v13.8L1060.5,1123.4L1060.5,1123.4z"/>
		<path class="st2" d="M1128.9,1042.1h31.4c8.9,0,16.6,1.6,23,4.8c6.4,3.2,11.3,7.8,14.7,13.9c3.4,6.1,5.1,13.4,5.1,21.8
			c0,8.5-1.7,15.8-5,21.9c-3.3,6.1-8.2,10.8-14.6,14c-6.4,3.2-14.1,4.8-23.1,4.8h-31.4V1042.1z M1159.2,1109c17.4,0,26-8.8,26-26.4
			c0-17.4-8.7-26.2-26-26.2h-12.4v52.5L1159.2,1109L1159.2,1109z"/>
		<path class="st2" d="M1249.1,1123.4V1042h17.8v81.3H1249.1z"/>
		<path class="st2" d="M1301.9,1123.4v-66.8h-25.5V1042h69v14.5H1320v66.8H1301.9z"/>
		<path class="st2" d="M1397.7,1121.9c-5.7-1.6-10.4-3.9-14.1-6.9l5.7-12.8c7.8,5.5,16.6,8.2,26.3,8.2c5.2,0,9.2-0.8,11.9-2.5
			c2.8-1.6,4.2-3.9,4.2-6.9c0-2.6-1.3-4.6-3.8-6.1c-2.6-1.5-7-2.9-13.4-4.3c-7.2-1.4-12.8-3.2-17.1-5.3c-4.2-2.1-7.3-4.6-9.3-7.7
			s-2.9-6.8-2.9-11.3c0-4.9,1.3-9.3,4.1-13.1c2.7-3.9,6.5-6.9,11.4-9.1c4.9-2.2,10.5-3.3,16.9-3.3c5.8,0,11.3,0.8,16.7,2.5
			c5.3,1.7,9.6,4,12.8,6.8l-5.7,12.8c-7.2-5.5-15-8.2-23.6-8.2c-4.6,0-8.2,0.9-11,2.7c-2.7,1.8-4.1,4.3-4.1,7.4
			c0,1.8,0.5,3.3,1.5,4.6s2.8,2.3,5.2,3.3c2.4,0.9,5.9,1.9,10.4,2.8c10.4,2.3,17.9,5.3,22.6,8.9c4.6,3.7,6.9,8.6,6.9,15
			c0,7.6-3,13.7-8.9,18.1c-5.9,4.4-14.2,6.7-24.8,6.7C1409.3,1124.4,1403.4,1123.6,1397.7,1121.9z"/>
		<path class="st2" d="M1478.7,1119.2c-6.1-3.5-10.8-8.3-14.1-14.6s-4.9-13.6-4.9-22c0-8.3,1.6-15.6,4.9-21.9s8-11.1,14.1-14.6
			c6.1-3.4,13.3-5.1,21.5-5.1c5.4,0,10.6,0.8,15.5,2.5s8.9,3.9,12.1,6.9l-5.6,12.8c-3.7-2.7-7.2-4.7-10.7-6
			c-3.5-1.3-7.1-1.9-10.9-1.9c-7.3,0-12.9,2.3-16.8,7s-5.8,11.4-5.8,20.3c0,9,1.9,15.8,5.8,20.5c3.9,4.7,9.5,7,16.8,7
			c3.8,0,7.4-0.6,10.9-1.9c3.5-1.3,7-3.3,10.7-6l5.6,12.8c-3.1,3-7.1,5.3-12.1,6.9s-10.1,2.5-15.5,2.5
			C1492,1124.4,1484.8,1122.7,1478.7,1119.2z"/>
		<path class="st2" d="M1595.5,1042.1h17.5v81.3h-17.5v-34.2h-37.7v34.2h-17.5v-81.3h17.5v32.9h37.7V1042.1z"/>
		<path class="st2" d="M1645.6,1119.3c-6-3.4-10.6-8.2-13.8-14.6c-3.2-6.3-4.8-13.7-4.8-22.2c0-8.4,1.6-15.8,4.8-22.1
			c3.2-6.2,7.8-11.1,13.8-14.4c6-3.4,13-5.1,21.1-5.1s15.1,1.7,21,5.1c5.9,3.4,10.5,8.2,13.7,14.4s4.8,13.6,4.8,22.1
			c0,8.4-1.6,15.8-4.8,22.2c-3.2,6.3-7.8,11.2-13.7,14.6c-5.9,3.4-12.9,5.1-21,5.1C1658.6,1124.4,1651.6,1122.7,1645.6,1119.3z
			 M1682.7,1103.3c3.8-4.8,5.8-11.7,5.8-20.7c0-9-1.9-15.8-5.8-20.6c-3.8-4.7-9.2-7.1-16.1-7.1c-6.8,0-12.2,2.4-16.1,7.1
			c-3.8,4.7-5.8,11.6-5.8,20.6c0,9.1,1.9,16,5.8,20.7c3.8,4.8,9.2,7.1,16.1,7.1C1673.5,1110.5,1678.9,1108.1,1682.7,1103.3z"/>
		<path class="st2" d="M1736.4,1119.3c-6-3.4-10.6-8.2-13.8-14.6c-3.2-6.3-4.8-13.7-4.8-22.2c0-8.4,1.6-15.8,4.8-22.1
			c3.2-6.2,7.8-11.1,13.8-14.4c6-3.4,13-5.1,21.1-5.1s15.1,1.7,21,5.1c5.9,3.4,10.5,8.2,13.7,14.4s4.8,13.6,4.8,22.1
			c0,8.4-1.6,15.8-4.8,22.2c-3.2,6.3-7.8,11.2-13.7,14.6c-5.9,3.4-12.9,5.1-21,5.1C1749.4,1124.4,1742.4,1122.7,1736.4,1119.3z
			 M1773.5,1103.3c3.8-4.8,5.8-11.7,5.8-20.7c0-9-1.9-15.8-5.8-20.6c-3.8-4.7-9.2-7.1-16.1-7.1c-6.8,0-12.2,2.4-16.1,7.1
			c-3.8,4.7-5.8,11.6-5.8,20.6c0,9.1,1.9,16,5.8,20.7c3.8,4.8,9.2,7.1,16.1,7.1C1764.3,1110.5,1769.7,1108.1,1773.5,1103.3z"/>
		<path class="st2" d="M1810.9,1123.4V1042h17.8v66.8h36.3v14.5H1810.9z"/>
	</g>
</g>
<g>
	<path class="st3" d="M1903.4,883.9v280.6H144.7V883.9H1903.4 M1919.4,867.9h-16H144.7h-16v16v280.6v16h16h1758.6h16v-16V883.9
		V867.9L1919.4,867.9z"/>
	<rect x="182.5" y="924.2" class="st3" width="36.2" height="200"/>
	<rect x="231.8" y="924.2" class="st3" width="36.2" height="100"/>
	<rect x="394" y="924.2" class="st3" width="36" height="200"/>
	<path class="st3" d="M331.8,1074.3c0,27.6-22.4,50-50,50s-50-22.4-50-50s22.4-50,50-50S331.8,1046.7,331.8,1074.3z"/>
	<rect x="344.6" y="1024.3" class="st3" width="36.2" height="100"/>
	<path class="st3" d="M380.9,974.2c0,27.6-22.4,50-50,50c-27.6,0-50-22.4-50-50c0-27.6,22.4-50,50-50
		C358.5,924.2,380.9,946.6,380.9,974.2z"/>
</g>
<g class="st0">
	<g class="st1">
		<path class="st2" d="M498.8,923.7c5.7,0,11.3,1.2,16.2,3.6v11.6c-3.6-2.8-8.9-4.5-14.1-4.5c-9.9,0-20,5.7-20,19.3
			c-0.1,12.5,10.1,18,20,18c5.8,0,11.2-1.6,14.6-4.7v11.9c-4.9,2.3-10.4,3.6-16.4,3.6c-15.1,0-30.6-9-30.6-28.8
			C468.5,933.1,483.6,923.7,498.8,923.7z"/>
		<path class="st2" d="M524.4,981.4v-56.6h49.2v56.6h-12v-45.7h-25.1v45.7H524.4z"/>
		<path class="st2" d="M625.6,924.9v10.7h-27.7v12h25.3v10.6h-25.3v12.6h28.2v10.7h-40.3v-56.6L625.6,924.9L625.6,924.9z"/>
		<path class="st2" d="M681.5,993.7v-12.3h-45.8v-56.6h12.1v45.7h25.1v-45.7H685v45.7h7.2v23.2H681.5z"/>
		<path class="st2" d="M738.2,981.4v-29.2c0-2.6,0.1-5.4,0.2-7.8L712,981.4h-11.4v-56.6h12.1V954c0,2.6-0.1,5.4-0.2,7.8l26.3-36.9
			h11.4v56.6H738.2z"/>
		<path class="st2" d="M756.6,981.4l23.1-56.6h13.1l23,56.6h-12.5l-4.1-10.6h-25.9l-4.2,10.6H756.6z M777.1,960.8h18.3l-7.9-20.3
			c-0.4-1.1-0.8-2.3-1.2-4.5c-0.4,2.2-0.8,3.3-1.3,4.5L777.1,960.8z"/>
		<path class="st2" d="M871,924.9v56.6h-12.1v-45.7h-15.5c-1.9,24.1-4.5,46.3-20.2,46.4c-1.9,0-4-0.2-6.3-1v-10.7
			c1,0.3,2.3,0.5,3.9,0.4c9.5-0.7,10-26.1,11.5-46L871,924.9L871,924.9z"/>
		<path class="st2" d="M920.6,981.4v-29.2c0-2.6,0.1-5.4,0.2-7.8l-26.3,36.9h-11.4v-56.6h12.1V954c0,2.6-0.1,5.4-0.2,7.8l26.3-36.9
			h11.4v56.6H920.6z"/>
		<path class="st2" d="M962.9,982.6c-6.7,0-13.4-1-20.9-3.6v-11.6c7.4,3.6,14.1,4.5,20,4.4c6.1,0,12-1.5,12-7.4
			c0-5.3-4.7-6.6-10.2-6.6h-12.8l0.1-10.7h11.9c5.3,0,8.8-1.9,8.8-5.9c0-4.5-4-6.5-11.2-6.5c-5.1-0.1-10.8,1-17.7,4.4v-11.6
			c6.5-2.8,12.8-3.7,18.8-3.7c13.3,0,22.3,5,22.3,15.4c0,6.2-3.6,10.5-9,12.4c5.9,1.6,11.3,6.1,11.3,14.5
			C986.3,978.7,974.1,982.6,962.9,982.6z"/>
		<path class="st2" d="M1032.8,981.4v-29.2c0-2.6,0.1-5.4,0.2-7.8l-26.3,36.9h-11.4v-56.6h12.1V954c0,2.6-0.1,5.4-0.2,7.8l26.4-36.9
			h11.4v56.6H1032.8z"/>
		<path class="st2" d="M1078.4,924.9c13.7,0,24.4,4.4,24.4,19s-10.8,19-24.4,19h-9.2v18.6h-12.1v-56.6H1078.4z M1079,935.5h-9.8
			v16.7h9.8c6.2,0,11.5-1.7,11.5-8.3C1090.5,937.1,1085.2,935.5,1079,935.5z"/>
		<path class="st2" d="M1137.9,923.7c20.1,0,30.1,14.1,30.1,29.4s-10,29.4-30.1,29.4c-20.1,0-30.1-14.1-30.1-29.4
			S1117.9,923.7,1137.9,923.7z M1137.9,935c-11.8,0-17.7,8.2-17.7,18.2c0,9.9,5.9,18.2,17.7,18.2c11.7,0,17.6-8.2,17.6-18.2
			C1155.6,943.2,1149.7,935,1137.9,935z"/>
		<path class="st2" d="M1201.7,924.9c12,0,19.6,4.6,19.6,14.3c0,6.6-3.6,10.7-8.6,12.4c5.6,1.6,10.8,5.7,10.8,14.1
			c0,12.8-12.4,15.8-22.2,15.8H1177v-56.6H1201.7z M1201.8,957H1189v14.5h12.1c5.4,0,10.3-1.1,10.3-7.3
			C1211.4,958.3,1206.7,957,1201.8,957z M1200.7,934.8h-11.6v12.9h12.2c4.6,0,7.9-2.1,7.9-6.5C1209.3,936.8,1206,934.8,1200.7,934.8
			z"/>
		<path class="st2" d="M1224.9,981.4l23.1-56.6h13.1l23,56.6h-12.5l-4.1-10.6h-25.9l-4.2,10.6H1224.9z M1245.5,960.8h18.3l-7.9-20.3
			c-0.4-1.1-0.8-2.3-1.2-4.5c-0.4,2.2-0.8,3.3-1.3,4.5L1245.5,960.8z"/>
		<path class="st2" d="M1340.1,924.9v56.6H1328v-22.8h-25.4v22.8h-12.1v-56.6h12.1v22.8h25.4v-22.8H1340.1z"/>
		<path class="st2" d="M1401.9,924.9v56.6h-12.1v-22.8h-25.4v22.8h-12.1v-56.6h12.1v22.8h25.4v-22.8H1401.9z"/>
		<path class="st2" d="M1408.2,981.4l23.1-56.6h13.1l23,56.6h-12.5l-4.1-10.6h-25.9l-4.2,10.6H1408.2z M1428.8,960.8h18.3l-7.9-20.3
			c-0.4-1.1-0.8-2.3-1.2-4.5c-0.4,2.2-0.8,3.3-1.3,4.5L1428.8,960.8z"/>
		<path class="st2" d="M1468.9,981.4l15.8-20.8c-7.3-2.4-12.6-7.7-12.6-16.9c0-13.6,10.8-18.9,22.7-18.9h23v56.6h-12.1v-19.2h-8.5
			l-14.3,19.2H1468.9z M1494.9,952.1h10.8v-16.6h-10.8c-6.1,0-10.3,2.6-10.3,8.3S1488.7,952.1,1494.9,952.1z"/>
		<path class="st2" d="M1547.9,981.4v-56.6h12.1v45.7h18.3v-45.7h12.1v45.7h18.3v-45.7h12v56.6H1547.9z"/>
		<path class="st2" d="M1632.9,981.4v-56.6h12.1v22.5h9.1l14.3-22.5h13.5l-18.3,27.6l19.4,29h-13.4l-15.4-23.1h-9.1v23.1H1632.9z"/>
		<path class="st2" d="M1712.9,923.7c20.1,0,30.1,14.1,30.1,29.4s-10,29.4-30.1,29.4s-30.1-14.1-30.1-29.4
			C1682.8,937.8,1692.9,923.7,1712.9,923.7z M1712.9,935c-11.8,0-17.7,8.2-17.7,18.2c0,9.9,5.9,18.2,17.7,18.2
			c11.7,0,17.6-8.2,17.6-18.2C1730.5,943.2,1724.6,935,1712.9,935z"/>
		<path class="st2" d="M1799.5,924.9v56.6h-12.1v-45.7h-15.5c-1.9,24.1-4.5,46.3-20.2,46.4c-1.9,0-4-0.2-6.3-1v-10.7
			c1.1,0.3,2.3,0.5,3.9,0.4c9.5-0.7,10-26.1,11.5-46L1799.5,924.9L1799.5,924.9z"/>
		<path class="st2" d="M1805.8,981.4l23.1-56.6h13.1l23,56.6h-12.5l-4.1-10.6h-25.9l-4.2,10.6H1805.8z M1826.3,960.8h18.3l-7.9-20.3
			c-0.4-1.1-0.8-2.3-1.2-4.5c-0.4,2.2-0.8,3.3-1.3,4.5L1826.3,960.8z"/>
	</g>
	<g class="st1">
		<path class="st2" d="M503.5,1056.4v-27.6c0-2.4,0.1-5.1,0.2-7.3l-24.9,35H468v-53.6h11.5v27.6c0,2.4-0.1,5.1-0.2,7.3l24.9-35H515
			v53.6H503.5z"/>
		<path class="st2" d="M573.4,1002.9v53.6H562v-21.6h-24v21.6h-11.5v-53.6h11.5v21.6h24v-21.6L573.4,1002.9L573.4,1002.9z"/>
		<path class="st2" d="M607.4,1059.4v-6.7c-16.1-0.7-26.5-8.9-26.5-23c0-14.1,10.5-22.3,26.5-23v-6.7h11v6.7
			c15.9,0.8,26.3,9,26.3,23s-10.4,22.3-26.3,23v6.7H607.4z M607.4,1043.1v-26.9c-11.1,0.8-15.1,6.7-15.1,13.5
			C592.3,1036.5,596.3,1042.4,607.4,1043.1z M618.4,1043.1c10.9-0.8,14.8-6.7,14.8-13.5s-4-12.6-14.8-13.5V1043.1z"/>
		<path class="st2" d="M677.7,1001.8c19,0,28.5,13.3,28.5,27.9s-9.5,27.8-28.5,27.8c-19,0-28.5-13.3-28.5-27.8
			C649.2,1015.1,658.7,1001.8,677.7,1001.8z M677.7,1012.5c-11.2,0-16.8,7.8-16.8,17.2s5.6,17.2,16.8,17.2
			c11.1,0,16.7-7.8,16.7-17.2C694.3,1020.3,688.8,1012.5,677.7,1012.5z"/>
		<path class="st2" d="M734.8,1002.9c12.9,0,23.1,4.1,23.1,18s-10.2,18-23.1,18h-8.7v17.6h-11.5v-53.6L734.8,1002.9L734.8,1002.9z
			 M735.3,1013h-9.3v15.8h9.3c5.9,0,10.9-1.6,10.9-7.9C746.2,1014.5,741.2,1013,735.3,1013z"/>
		<path class="st2" d="M823.6,1002.9v53.6h-11.5v-33l-14.2,21.5h-6.7l-14.2-21.6v33h-11.5v-53.6h10.6l18.4,27.9l18.3-27.8
			L823.6,1002.9L823.6,1002.9z"/>
		<path class="st2" d="M829.5,1056.4l21.9-53.6h12.4l21.8,53.6h-11.9l-3.9-10h-24.5l-4,10H829.5z M849,1036.9h17.3l-7.5-19.2
			c-0.4-1.1-0.8-2.1-1.2-4.2c-0.4,2.1-0.8,3.1-1.2,4.2L849,1036.9z"/>
		<path class="st2" d="M935,1068.1v-11.6h-43.4v-53.6h11.5v43.2h23.7v-43.2h11.5v43.2h6.8v22H935z"/>
		<path class="st2" d="M988.6,1056.4v-27.6c0-2.4,0.1-5.1,0.2-7.3l-24.9,35h-10.8v-53.6h11.5v27.6c0,2.4-0.1,5.1-0.2,7.3l24.9-35
			h10.8v53.6H988.6z"/>
		<path class="st2" d="M1037,1001.8c19,0,28.5,13.3,28.5,27.9s-9.5,27.8-28.5,27.8s-28.5-13.3-28.5-27.8
			C1008.6,1015.1,1018.1,1001.8,1037,1001.8z M1037,1012.5c-11.2,0-16.8,7.8-16.8,17.2s5.6,17.2,16.8,17.2
			c11.1,0,16.7-7.8,16.7-17.2C1053.7,1020.3,1048.1,1012.5,1037,1012.5z"/>
		<path class="st2" d="M1121,1002.9v53.6h-11.5v-21.6h-24v21.6H1074v-53.6h11.5v21.6h24v-21.6L1121,1002.9L1121,1002.9z"/>
		<path class="st2" d="M1179.4,1002.9v53.6H1168v-21.6h-24v21.6h-11.5v-53.6h11.5v21.6h24v-21.6L1179.4,1002.9L1179.4,1002.9z"/>
		<path class="st2" d="M1190.9,1056.4v-53.6h11.5v17.6h8.7c12.9,0.1,23.1,4.1,23.1,18c0,13.8-10.2,18-23.1,18H1190.9z
			 M1202.4,1046.3h9.3c5.9,0,10.9-1.6,10.9-7.9s-5-7.9-10.9-7.9h-9.3V1046.3z M1238.6,1056.4v-53.6h11.5v53.6H1238.6z"/>
		<path class="st2" d="M1255.3,1056.4l19.2-27.8l-18.1-25.8h13.4l11.9,17.6l11.8-17.6h13.5l-18.1,25.8l19.2,27.8h-13.5l-12.9-19.5
			l-13,19.5H1255.3z"/>
		<path class="st2" d="M1369.9,1002.9v10.3h-16.4v43.2h-11.4v-43.2h-16.4v-10.3L1369.9,1002.9L1369.9,1002.9z"/>
		<path class="st2" d="M1414.4,1002.9v10.1h-26.2v11.4h23.9v10h-23.9v11.9h26.7v10.1h-38.2v-53.6L1414.4,1002.9L1414.4,1002.9z"/>
		<path class="st2" d="M1417.7,1056.4l19.2-27.8l-18.1-25.8h13.4l11.9,17.6l11.8-17.6h13.5l-18.1,25.8l19.2,27.8H1457l-12.9-19.5
			l-13,19.5H1417.7z"/>
		<path class="st2" d="M1522.8,1002.9v53.6h-11.5v-21.6h-24v21.6h-11.5v-53.6h11.5v21.6h24v-21.6L1522.8,1002.9L1522.8,1002.9z"/>
		<path class="st2" d="M1559.7,1001.8c19,0,28.5,13.3,28.5,27.9s-9.5,27.8-28.5,27.8s-28.5-13.3-28.5-27.8
			C1531.3,1015.1,1540.7,1001.8,1559.7,1001.8z M1559.7,1012.5c-11.2,0-16.8,7.8-16.8,17.2s5.6,17.2,16.8,17.2
			c11.1,0,16.7-7.8,16.7-17.2C1576.4,1020.3,1570.8,1012.5,1559.7,1012.5z"/>
		<path class="st2" d="M1641.7,1002.9v53.6h-11.5v-43.2h-14.7c-1.8,22.8-4.3,43.8-19.1,43.9c-1.8,0-3.8-0.2-6-1v-10.1
			c1,0.3,2.1,0.5,3.7,0.4c9-0.6,9.5-24.7,10.9-43.5L1641.7,1002.9L1641.7,1002.9z"/>
		<path class="st2" d="M1678.6,1001.8c19,0,28.5,13.3,28.5,27.9s-9.5,27.8-28.5,27.8s-28.5-13.3-28.5-27.8
			C1650.2,1015.1,1659.6,1001.8,1678.6,1001.8z M1678.6,1012.5c-11.2,0-16.8,7.8-16.8,17.2s5.6,17.2,16.8,17.2
			c11.1,0,16.7-7.8,16.7-17.2C1695.3,1020.3,1689.7,1012.5,1678.6,1012.5z"/>
		<path class="st2" d="M1715.6,1056.4v-53.6h37.4v10.3H1727v43.2H1715.6z"/>
		<path class="st2" d="M1795.1,1056.4v-27.6c0-2.4,0.1-5.1,0.2-7.3l-24.9,35h-10.8v-53.6h11.5v27.6c0,2.4-0.1,5.1-0.2,7.3l24.9-35
			h10.8v53.6H1795.1z"/>
		<path class="st2" d="M1853.6,1056.4v-27.6c0-2.4,0.1-5.1,0.2-7.3l-24.9,35h-10.8v-53.6h11.5v27.6c0,2.4-0.1,5.1-0.2,7.3l24.9-35
			h10.8v53.6H1853.6z M1853.6,995.7v-8.3c-4.1,2.5-7.9,3.3-12,3.3s-7.9-0.8-11.9-3.3v8.3c3.4,2.4,7,3.4,11.9,3.4
			C1846.6,999.1,1850.2,998.1,1853.6,995.7z"/>
	</g>
	<g class="st1">
		<path class="st2" d="M501,1123.4v-25.6c0-2.3,0.1-4.8,0.2-6.8l-23.2,32.5h-10v-49.7h10.7v25.6c0,2.3-0.1,4.8-0.2,6.8l23.2-32.5h10
			v49.7H501z"/>
		<path class="st2" d="M576.1,1073.7v49.7h-10.7v-30.6l-13.1,20h-6.2l-13.1-20v30.7h-10.7v-49.7h9.9l17,25.9l17-25.9L576.1,1073.7
			L576.1,1073.7z"/>
		<path class="st2" d="M621.8,1073.7v9.4h-24.4v10.6h22.2v9.3h-22.2v11.1h24.8v9.4h-35.5v-49.7H621.8z"/>
		<path class="st2" d="M674.2,1073.7v49.7h-10.7v-20h-22.3v20h-10.7v-49.7h10.7v20h22.3v-20H674.2z"/>
		<path class="st2" d="M717.9,1123.4v-25.6c0-2.3,0.1-4.8,0.2-6.8l-23.2,32.5h-10v-49.7h10.7v25.6c0,2.3-0.1,4.8-0.2,6.8l23.2-32.5
			h10v49.7H717.9z"/>
		<path class="st2" d="M808.7,1073.7v49.7h-10.7v-30.6l-13.1,20h-6.2l-13.1-20v30.7H755v-49.7h9.9l17,25.9l17-25.9L808.7,1073.7
			L808.7,1073.7z"/>
		<path class="st2" d="M827.2,1124.4c-2.4,0-5-0.5-7.5-1.2v-9c1.7,0.6,3.8,0.9,5.8,0.9c3.3,0,5.9-0.8,7.7-4.5l0.8-1.8l-19.8-35.2
			h11.8l13.1,25.6l10.9-25.6h11.7l-18,38.4C839,1121.7,833.5,1124.4,827.2,1124.4z"/>
		<path class="st2" d="M861,1123.4l17.8-25.8l-16.8-23.9h12.4l11,16.3l10.9-16.3h12.5l-16.8,23.9l17.8,25.8h-12.5l-12-18.1
			l-12.1,18.1H861z"/>
		<path class="st2" d="M909.8,1123.4l20.3-49.7h11.5l20.3,49.7h-11l-3.6-9.3h-22.7l-3.7,9.3H909.8z M927.8,1105.3h16l-7-17.8
			c-0.4-1-0.7-2-1.1-3.9c-0.4,1.9-0.7,2.9-1.1,3.9L927.8,1105.3z"/>
		<path class="st2" d="M1021.1,1073.7v49.7h-10.7v-30.6l-13.1,20h-6.2l-13.1-20v30.7h-10.7v-49.7h9.9l17,25.9l17-25.9L1021.1,1073.7
			L1021.1,1073.7z"/>
		<path class="st2" d="M1085.6,1073.7v49.7h-10.7v-30.6l-13.1,20h-6.2l-13.1-20v30.7h-10.7v-49.7h9.9l17.1,25.9l17-25.9
			L1085.6,1073.7L1085.6,1073.7z"/>
		<path class="st2" d="M1091.1,1123.4l20.3-49.7h11.5l20.3,49.7h-11l-3.6-9.3h-22.7l-3.7,9.3H1091.1z M1109.2,1105.3h16.1l-7-17.8
			c-0.4-1-0.7-2-1.1-3.9c-0.4,1.9-0.7,2.9-1.1,3.9L1109.2,1105.3z"/>
		<path class="st2" d="M1144.9,1134.2V1114h5.8c6.4-11.4,7.9-26.5,7.9-40.3h33.8v40.3h6.3v20.2h-9.4v-10.8h-35.1v10.8L1144.9,1134.2
			L1144.9,1134.2z M1162,1114h19.8v-30.8h-13.2C1167.8,1094.3,1166.3,1105.8,1162,1114z"/>
		<path class="st2" d="M1201.1,1123.4l20.3-49.7h11.5l20.3,49.7h-11l-3.6-9.3h-22.7l-3.7,9.3H1201.1z M1219.1,1105.3h16.1l-7-17.8
			c-0.4-1-0.7-2-1.1-3.9c-0.4,1.9-0.7,2.9-1.1,3.9L1219.1,1105.3z"/>
		<path class="st2" d="M1269.4,1123.4l20.3-49.7h11.5l20.3,49.7h-11l-3.6-9.3h-22.7l-3.7,9.3H1269.4z M1287.4,1105.3h16.1l-7-17.8
			c-0.4-1-0.7-2-1.1-3.9c-0.4,1.9-0.7,2.9-1.1,3.9L1287.4,1105.3z"/>
		<path class="st2" d="M1369.9,1073.7v49.7h-10.7v-40.1h-13.6c-1.7,21.2-4,40.7-17.8,40.8c-1.7,0-3.6-0.2-5.5-0.9v-9.4
			c0.9,0.3,2,0.4,3.4,0.4c8.4-0.6,8.8-22.9,10.1-40.4L1369.9,1073.7L1369.9,1073.7z"/>
		<path class="st2" d="M1380.6,1123.4v-49.7h10.7v16.3h8.1c12,0.1,21.4,3.8,21.4,16.7c0,12.9-9.4,16.7-21.4,16.7L1380.6,1123.4
			L1380.6,1123.4z M1391.2,1114h8.6c5.5,0,10.1-1.5,10.1-7.3s-4.6-7.3-10.1-7.3h-8.6V1114z"/>
		<path class="st2" d="M1453.2,1094.3v8.4h-26.4v-8.4H1453.2z"/>
		<path class="st2" d="M1453.4,1123.4l17.8-25.8l-16.8-23.9h12.4l11,16.3l10.9-16.3h12.5l-16.8,23.9l17.8,25.8h-12.5l-12-18.1
			l-12.1,18.1H1453.4z"/>
		<path class="st2" d="M1528.5,1072.7c17.6,0,26.4,12.4,26.4,25.9s-8.8,25.9-26.4,25.9s-26.4-12.4-26.4-25.9
			S1510.9,1072.7,1528.5,1072.7z M1528.5,1082.5c-10.4,0-15.6,7.3-15.6,16c0,8.7,5.2,16,15.6,16c10.3,0,15.5-7.3,15.5-16
			C1544,1089.8,1538.8,1082.5,1528.5,1082.5z"/>
		<path class="st2" d="M1581.6,1073.7c12,0,21.4,3.8,21.4,16.7c0,12.9-9.4,16.7-21.4,16.7h-8.1v16.3h-10.7v-49.7L1581.6,1073.7
			L1581.6,1073.7z M1582.1,1083h-8.6v14.6h8.6c5.5,0,10.1-1.5,10.1-7.3C1592.2,1084.4,1587.6,1083,1582.1,1083z"/>
		<path class="st2" d="M1600.5,1123.4l20.3-49.7h11.5l20.2,49.7h-11l-3.6-9.3h-22.7l-3.7,9.3H1600.5z M1618.6,1105.3h16.1l-7-17.8
			c-0.4-1-0.7-2-1.1-3.9c-0.4,1.9-0.7,2.9-1.1,3.9L1618.6,1105.3z"/>
		<path class="st2" d="M1674,1124.4c-5.9,0-11.8-0.8-18.4-3.2v-10.2c6.5,3.2,12.4,3.9,17.6,3.8c5.4,0,10.6-1.3,10.6-6.5
			c0-4.6-4.1-5.8-8.9-5.8h-11.2l0.1-9.4h10.4c4.7,0,7.7-1.7,7.7-5.2c0-4-3.6-5.7-9.9-5.7c-4.5-0.1-9.5,0.9-15.6,3.8v-10.2
			c5.8-2.4,11.3-3.3,16.5-3.3c11.7,0,19.6,4.4,19.6,13.6c0,5.5-3.1,9.2-8,10.9c5.2,1.4,9.9,5.3,9.9,12.8
			C1694.5,1121,1683.8,1124.4,1674,1124.4z"/>
		<path class="st2" d="M1756.2,1073.7v49.7h-10.7v-30.6l-13.1,20h-6.2l-13.1-20v30.7h-10.7v-49.7h9.9l17.1,25.9l17-25.9
			L1756.2,1073.7L1756.2,1073.7z"/>
		<path class="st2" d="M1799.8,1123.4v-25.6c0-2.3,0.1-4.8,0.2-6.8l-23.2,32.5h-10v-49.7h10.7v25.6c0,2.3-0.1,4.8-0.2,6.8l23.2-32.5
			h10v49.7H1799.8z"/>
		<path class="st2" d="M1854.1,1123.4v-25.6c0-2.3,0.1-4.8,0.2-6.8l-23.2,32.5h-10v-49.7h10.7v25.6c0,2.3-0.1,4.8-0.2,6.8l23.2-32.5
			h10v49.7H1854.1z M1854.1,1067v-7.7c-3.8,2.3-7.3,3.1-11.2,3.1c-3.8,0-7.3-0.7-11.1-3.1v7.7c3.1,2.2,6.5,3.2,11.1,3.2
			C1847.6,1070.2,1851,1069.2,1854.1,1067z"/>
	</g>
</g>
<g class="st0">
	<g class="st1">
		<path class="st2" d="M483.4,924.2c2.9,0,5.8,0.6,8.2,1.8v5.9c-1.9-1.4-4.5-2.3-7.2-2.3c-5,0-10.1,2.9-10.1,9.8
			c0,6.3,5.1,9.1,10.1,9.1c3,0,5.7-0.8,7.4-2.4v6c-2.5,1.2-5.3,1.8-8.3,1.8c-7.7,0-15.5-4.6-15.5-14.6
			C468,929,475.8,924.2,483.4,924.2z"/>
		<path class="st2" d="M496.5,953.5v-28.7h25v28.7h-6.1v-23.2h-12.7v23.2H496.5z"/>
		<path class="st2" d="M547.9,924.8v5.4h-14.1v6.1h12.8v5.4h-12.8v6.4h14.3v5.4h-20.5v-28.7L547.9,924.8L547.9,924.8z"/>
		<path class="st2" d="M576.2,959.7v-6.2H553v-28.7h6.2V948h12.7v-23.2h6.2V948h3.7v11.8L576.2,959.7L576.2,959.7z"/>
		<path class="st2" d="M605,953.5v-14.8c0-1.3,0-2.8,0.1-3.9l-13.4,18.8H586v-28.7h6.2v14.8c0,1.3,0,2.8-0.1,3.9l13.4-18.8h5.8v28.7
			H605z"/>
		<path class="st2" d="M614.4,953.5l11.7-28.7h6.7l11.7,28.7h-6.4l-2.1-5.4h-13.1l-2.1,5.4H614.4z M624.8,943h9.3l-4-10.3
			c-0.2-0.6-0.4-1.2-0.6-2.3c-0.2,1.1-0.4,1.7-0.7,2.3L624.8,943z"/>
		<path class="st2" d="M672.5,924.8v28.7h-6.2v-23.2h-7.9c-1,12.2-2.3,23.5-10.3,23.6c-1,0-2-0.1-3.2-0.5v-5.4
			c0.5,0.2,1.2,0.3,2,0.2c4.8-0.3,5.1-13.3,5.8-23.3H672.5z"/>
		<path class="st2" d="M697.7,953.5v-14.8c0-1.3,0-2.8,0.1-3.9l-13.4,18.8h-5.8v-28.7h6.2v14.8c0,1.3,0,2.8-0.1,3.9l13.4-18.8h5.8
			v28.7H697.7z"/>
		<path class="st2" d="M719.2,954.1c-3.4,0-6.8-0.5-10.6-1.8v-5.9c3.8,1.8,7.1,2.3,10.2,2.2c3.1,0,6.1-0.8,6.1-3.7
			c0-2.7-2.4-3.4-5.2-3.4h-6.5l0-5.4h6c2.7,0,4.5-1,4.5-3c0-2.3-2-3.3-5.7-3.3c-2.6,0-5.5,0.5-9,2.2v-5.9c3.3-1.4,6.5-1.9,9.5-1.9
			c6.7,0,11.3,2.5,11.3,7.8c0,3.2-1.8,5.3-4.6,6.3c3,0.8,5.8,3.1,5.8,7.4C731.1,952.1,724.9,954.1,719.2,954.1z"/>
		<path class="st2" d="M754.7,953.5v-14.8c0-1.3,0-2.8,0.1-3.9l-13.4,18.8h-5.8v-28.7h6.2v14.8c0,1.3,0,2.8-0.1,3.9l13.4-18.8h5.8
			v28.7H754.7z"/>
		<path class="st2" d="M777.9,924.8c6.9,0,12.4,2.2,12.4,9.6c0,7.4-5.5,9.7-12.4,9.7h-4.7v9.4H767v-28.7L777.9,924.8L777.9,924.8z
			 M778.2,930.2h-5v8.5h5c3.2,0,5.8-0.9,5.8-4.2C784,931,781.3,930.2,778.2,930.2z"/>
		<path class="st2" d="M808.1,924.2c10.2,0,15.3,7.1,15.3,14.9s-5.1,14.9-15.3,14.9s-15.3-7.1-15.3-14.9
			C792.8,931.3,797.9,924.2,808.1,924.2z M808.1,929.9c-6,0-9,4.2-9,9.2c0,5,3,9.2,9,9.2c6,0,9-4.2,9-9.2
			C817,934.1,814,929.9,808.1,929.9z"/>
		<path class="st2" d="M840.5,924.8c6.1,0,9.9,2.3,9.9,7.3c0,3.4-1.8,5.4-4.3,6.3c2.8,0.8,5.5,2.9,5.5,7.1c0,6.5-6.3,8-11.3,8h-12.3
			v-28.7L840.5,924.8L840.5,924.8z M840.5,941.1h-6.5v7.4h6.2c2.8,0,5.2-0.6,5.2-3.7C845.4,941.8,843,941.1,840.5,941.1z M840,929.8
			h-5.9v6.6h6.2c2.3,0,4-1.1,4-3.3C844.3,930.8,842.7,929.8,840,929.8z"/>
		<path class="st2" d="M852.3,953.5l11.7-28.7h6.7l11.7,28.7H876l-2.1-5.4h-13.1l-2.1,5.4H852.3z M862.7,943h9.3l-4-10.3
			c-0.2-0.6-0.4-1.2-0.6-2.3c-0.2,1.1-0.4,1.7-0.7,2.3L862.7,943z"/>
		<path class="st2" d="M910.8,924.8v28.7h-6.2v-11.6h-12.9v11.6h-6.2v-28.7h6.2v11.6h12.9v-11.6H910.8z"/>
		<path class="st2" d="M942.2,924.8v28.7H936v-11.6h-12.9v11.6H917v-28.7h6.2v11.6H936v-11.6H942.2z"/>
		<path class="st2" d="M945.4,953.5l11.7-28.7h6.7l11.7,28.7h-6.4l-2.1-5.4h-13.1l-2.1,5.4H945.4z M955.8,943h9.3l-4-10.3
			c-0.2-0.6-0.4-1.2-0.6-2.3c-0.2,1.1-0.4,1.7-0.7,2.3L955.8,943z"/>
		<path class="st2" d="M976.2,953.5l8-10.5c-3.7-1.2-6.4-3.9-6.4-8.6c0-6.9,5.5-9.6,11.5-9.6h11.7v28.7h-6.2v-9.8h-4.3l-7.3,9.8
			H976.2z M989.4,938.6h5.5v-8.4h-5.5c-3.1,0-5.3,1.3-5.3,4.2C984.2,937.2,986.3,938.6,989.4,938.6z"/>
		<path class="st2" d="M1016.3,953.5v-28.7h6.2V948h9.3v-23.2h6.2V948h9.3v-23.2h6.1v28.7H1016.3z"/>
		<path class="st2" d="M1059.5,953.5v-28.7h6.2v11.4h4.6l7.3-11.4h6.8l-9.3,14l9.8,14.7h-6.8l-7.8-11.7h-4.6v11.7H1059.5z"/>
		<path class="st2" d="M1100.2,924.2c10.2,0,15.3,7.1,15.3,14.9s-5.1,14.9-15.3,14.9s-15.3-7.1-15.3-14.9S1090,924.2,1100.2,924.2z
			 M1100.2,929.9c-6,0-9,4.2-9,9.2c0,5,3,9.2,9,9.2c5.9,0,8.9-4.2,8.9-9.2C1109.1,934.1,1106.1,929.9,1100.2,929.9z"/>
		<path class="st2" d="M1144.1,924.8v28.7h-6.2v-23.2h-7.9c-1,12.2-2.3,23.5-10.3,23.6c-1,0-2.1-0.1-3.2-0.5v-5.4
			c0.5,0.2,1.2,0.3,2,0.2c4.8-0.3,5.1-13.3,5.8-23.3H1144.1z"/>
		<path class="st2" d="M1147.4,953.5l11.7-28.7h6.7l11.7,28.7h-6.4l-2.1-5.4h-13.1l-2.1,5.4H1147.4z M1157.8,943h9.3l-4-10.3
			c-0.2-0.6-0.4-1.2-0.6-2.3c-0.2,1.1-0.4,1.7-0.7,2.3L1157.8,943z"/>
		<path class="st2" d="M1189.8,953.5v-28.7h25v28.7h-6.1v-23.2h-12.7v23.2H1189.8z"/>
		<path class="st2" d="M1234.6,924.2c10.2,0,15.3,7.1,15.3,14.9s-5.1,14.9-15.3,14.9s-15.3-7.1-15.3-14.9S1224.4,924.2,1234.6,924.2
			z M1234.6,929.9c-6,0-9,4.2-9,9.2c0,5,3,9.2,9,9.2c5.9,0,8.9-4.2,8.9-9.2C1243.6,934.1,1240.6,929.9,1234.6,929.9z"/>
		<path class="st2" d="M1268.1,954.1c-1.4,0-2.9-0.3-4.3-0.7v-5.2c1,0.3,2.2,0.5,3.3,0.5c1.9,0,3.4-0.5,4.4-2.6l0.5-1l-11.4-20.3
			h6.8l7.6,14.8l6.3-14.8h6.8l-10.4,22.2C1274.9,952.5,1271.7,954.1,1268.1,954.1z"/>
		<path class="st2" d="M1290.9,953.5v-28.7h20.1v5.5h-13.9v23.2H1290.9z"/>
		<path class="st2" d="M1336,924.8v28.7h-6.2v-23.2h-7.9c-1,12.2-2.3,23.5-10.3,23.6c-1,0-2.1-0.1-3.2-0.5v-5.4
			c0.5,0.2,1.2,0.3,2,0.2c4.8-0.3,5.1-13.3,5.8-23.3H1336z"/>
		<path class="st2" d="M1346.7,954.1c-1.4,0-2.9-0.3-4.3-0.7v-5.2c1,0.3,2.2,0.5,3.3,0.5c1.9,0,3.4-0.5,4.4-2.6l0.5-1l-11.4-20.3
			h6.8l7.6,14.8l6.3-14.8h6.8l-10.4,22.2C1353.5,952.5,1350.4,954.1,1346.7,954.1z"/>
		<path class="st2" d="M1382,935.4c5.7,0,11,1.9,11,9c0,7.1-5.3,9-11,9h-12.5v-28.7h21.1v5.5h-15v5.1L1382,935.4L1382,935.4z
			 M1382.1,948.1c2.4,0,4.7-0.5,4.7-3.6s-2.3-3.6-4.7-3.6h-6.4v7.2H1382.1z"/>
		<path class="st2" d="M1422.1,924.8v28.7h-6.2v-23.2h-7.9c-1,12.2-2.3,23.5-10.3,23.6c-1,0-2.1-0.1-3.2-0.5v-5.4
			c0.5,0.2,1.2,0.3,2,0.2c4.8-0.3,5.1-13.3,5.8-23.3H1422.1z"/>
		<path class="st2" d="M1448.5,924.8v5.4h-14.1v6.1h12.8v5.4h-12.8v6.4h14.3v5.4h-20.5v-28.7L1448.5,924.8L1448.5,924.8z"/>
		<path class="st2" d="M1478.8,924.8v28.7h-6.2v-11.6h-12.9v11.6h-6.2v-28.7h6.2v11.6h12.9v-11.6H1478.8z"/>
		<path class="st2" d="M1510.2,924.8v28.7h-6.2v-11.6h-12.9v11.6h-6.2v-28.7h6.2v11.6h12.9v-11.6H1510.2z"/>
		<path class="st2" d="M1530,924.2c10.2,0,15.3,7.1,15.3,14.9s-5.1,14.9-15.3,14.9s-15.3-7.1-15.3-14.9S1519.8,924.2,1530,924.2z
			 M1530,929.9c-6,0-9,4.2-9,9.2c0,5,3,9.2,9,9.2c5.9,0,8.9-4.2,8.9-9.2C1538.9,934.1,1535.9,929.9,1530,929.9z"/>
		<path class="st2" d="M1580.9,924.8v28.7h-6.2v-17.7l-7.6,11.5h-3.6l-7.6-11.6v17.7h-6.2v-28.7h5.7l9.8,14.9l9.8-14.9H1580.9z"/>
		<path class="st2" d="M1591.6,954.1c-1.4,0-2.9-0.3-4.3-0.7v-5.2c1,0.3,2.2,0.5,3.3,0.5c1.9,0,3.4-0.5,4.4-2.6l0.5-1l-11.4-20.3
			h6.8l7.6,14.8l6.3-14.8h6.8l-10.4,22.2C1598.4,952.5,1595.3,954.1,1591.6,954.1z"/>
		<path class="st2" d="M1642.6,953.5v-14.8c0-1.3,0-2.8,0.1-3.9l-13.4,18.8h-5.8v-28.7h6.2v14.8c0,1.3,0,2.8-0.1,3.9l13.4-18.8h5.8
			v28.7H1642.6z"/>
		<path class="st2" d="M1664.1,954.1c-3.4,0-6.8-0.5-10.6-1.8v-5.9c3.8,1.8,7.1,2.3,10.2,2.2c3.1,0,6.1-0.8,6.1-3.7
			c0-2.7-2.4-3.4-5.2-3.4h-6.5l0-5.4h6c2.7,0,4.5-1,4.5-3c0-2.3-2.1-3.3-5.7-3.3c-2.6,0-5.5,0.5-9,2.2v-5.9c3.3-1.4,6.5-1.9,9.5-1.9
			c6.7,0,11.3,2.5,11.3,7.8c0,3.2-1.8,5.3-4.6,6.3c3,0.8,5.7,3.1,5.7,7.4C1675.9,952.1,1669.8,954.1,1664.1,954.1z"/>
		<path class="st2" d="M1684.7,954.1c-1.4,0-2.9-0.3-4.3-0.7v-5.2c1,0.3,2.2,0.5,3.3,0.5c1.9,0,3.4-0.5,4.4-2.6l0.5-1l-11.4-20.3
			h6.8l7.6,14.8l6.3-14.8h6.8l-10.4,22.2C1691.6,952.5,1688.4,954.1,1684.7,954.1z"/>
		<path class="st2" d="M1723.9,953.5v-10.3c-2.5,0.8-5,1.2-7.3,1.2c-6.4,0-10.5-3.2-10.5-9.9v-9.8h6.2v9.6c0,3.1,2.5,4.5,5.9,4.5
			c1.8,0,3.8-0.4,5.7-1.2v-12.9h6.2v28.7L1723.9,953.5L1723.9,953.5z"/>
		<path class="st2" d="M1756.4,924.8v5.4h-14.1v6.1h12.8v5.4h-12.8v6.4h14.3v5.4h-20.5v-28.7L1756.4,924.8L1756.4,924.8z"/>
		<path class="st2" d="M1786.7,924.8v28.7h-6.2v-11.6h-12.9v11.6h-6.2v-28.7h6.2v11.6h12.9v-11.6H1786.7z"/>
		<path class="st2" d="M1811.9,953.5v-14.8c0-1.3,0-2.8,0.1-3.9l-13.4,18.8h-5.8v-28.7h6.2v14.8c0,1.3,0,2.8-0.1,3.9l13.4-18.8h5.8
			v28.7H1811.9z"/>
		<path class="st2" d="M1849.8,954.1c-8.9,0-13.9-5.7-14.8-12.2h-4.6v11.6h-6.2v-28.7h6.2v11.6h4.6c1-6.5,5.9-12.2,14.8-12.2
			c10.2,0,15.3,7.1,15.3,14.9C1865.1,946.9,1860,954.1,1849.8,954.1z M1849.8,948.4c5.9,0,8.9-4.2,8.9-9.2s-3-9.2-8.9-9.2
			c-6,0-9,4.2-9,9.2C1840.9,944.2,1843.9,948.4,1849.8,948.4z"/>
	</g>
	<g class="st1">
		<path class="st2" d="M468,1033.9v-25.8h22.4v25.8H485v-20.8h-11.4v20.8H468z"/>
		<path class="st2" d="M505.7,1008.2c6.2,0,11.1,2,11.1,8.7s-4.9,8.7-11.1,8.7h-4.2v8.5H496v-25.8H505.7z M506,1013h-4.5v7.6h4.5
			c2.8,0,5.2-0.8,5.2-3.8C511.2,1013.8,508.8,1013,506,1013z"/>
		<path class="st2" d="M538.7,1008.2v4.9h-12.6v5.5h11.5v4.8h-11.5v5.8H539v4.9h-18.4v-25.8H538.7z"/>
		<path class="st2" d="M541.3,1039.6v-10.5h3c3.3-5.9,4.1-13.7,4.1-20.9H566v20.9h3.3v10.5h-4.9v-5.6h-18.2v5.6H541.3z
			 M550.2,1029.1h10.2v-16h-6.8C553.2,1018.8,552.4,1024.8,550.2,1029.1z"/>
		<path class="st2" d="M601,1008.2v25.8h-5.5v-15.9l-6.8,10.3h-3.2l-6.8-10.4v15.9h-5.5v-25.8h5.1l8.8,13.4l8.8-13.4H601z"/>
		<path class="st2" d="M624.7,1008.2v4.9h-12.6v5.5h11.5v4.8h-11.5v5.8H625v4.9h-18.4v-25.8H624.7z"/>
		<path class="st2" d="M648.4,1008.2v5h-7.9v20.8H635v-20.8H627v-5H648.4z"/>
		<path class="st2" d="M663.1,1007.6c9.1,0,13.7,6.4,13.7,13.4c0,7-4.6,13.4-13.7,13.4s-13.7-6.4-13.7-13.4
			C649.4,1014.1,653.9,1007.6,663.1,1007.6z M663.1,1012.8c-5.4,0-8.1,3.8-8.1,8.3s2.7,8.3,8.1,8.3c5.3,0,8-3.8,8-8.3
			S668.4,1012.8,663.1,1012.8z"/>
		<path class="st2" d="M692.2,1008.2c5.5,0,8.9,2.1,8.9,6.5c0,3-1.6,4.9-3.9,5.6c2.5,0.7,4.9,2.6,4.9,6.4c0,5.9-5.6,7.2-10.1,7.2
			h-11.1v-25.8H692.2z M692.2,1022.8h-5.8v6.6h5.5c2.5,0,4.7-0.5,4.7-3.3C696.6,1023.4,694.4,1022.8,692.2,1022.8z M691.7,1012.7
			h-5.3v5.9h5.6c2.1,0,3.6-1,3.6-3C695.6,1013.6,694.1,1012.7,691.7,1012.7z"/>
		<path class="st2" d="M737,1008.2v25.8h-5.5v-10.4h-11.6v10.4h-5.5v-25.8h5.5v10.4h11.6v-10.4H737z"/>
		<path class="st2" d="M739.9,1033.9l10.5-25.8h6l10.5,25.8h-5.7l-1.9-4.8h-11.8l-1.9,4.8H739.9z M749.3,1024.6h8.3l-3.6-9.3
			c-0.2-0.5-0.4-1-0.5-2c-0.2,1-0.4,1.5-0.6,2L749.3,1024.6z"/>
		<path class="st2" d="M769.8,1033.9v-25.8h22.4v25.8h-5.5v-20.8h-11.4v20.8H769.8z"/>
		<path class="st2" d="M807.5,1008.2c6.2,0,11.1,2,11.1,8.7s-4.9,8.7-11.1,8.7h-4.2v8.5h-5.5v-25.8H807.5z M807.8,1013h-4.5v7.6h4.5
			c2.8,0,5.2-0.8,5.2-3.8C813,1013.8,810.6,1013,807.8,1013z"/>
		<path class="st2" d="M817.3,1033.9l10.5-25.8h6l10.5,25.8h-5.7l-1.9-4.8h-11.8l-1.9,4.8H817.3z M826.7,1024.6h8.3l-3.6-9.3
			c-0.2-0.5-0.4-1-0.5-2c-0.2,1-0.4,1.5-0.6,2L826.7,1024.6z"/>
		<path class="st2" d="M858.5,1008.2c5.5,0,8.9,2.1,8.9,6.5c0,3-1.6,4.9-3.9,5.6c2.5,0.7,4.9,2.6,4.9,6.4c0,5.9-5.6,7.2-10.1,7.2
			h-11.1v-25.8H858.5z M858.5,1022.8h-5.8v6.6h5.5c2.5,0,4.7-0.5,4.7-3.3C862.9,1023.4,860.7,1022.8,858.5,1022.8z M858,1012.7h-5.3
			v5.9h5.6c2.1,0,3.6-1,3.6-3C861.9,1013.6,860.5,1012.7,858,1012.7z"/>
		<path class="st2" d="M894.8,1008.2v25.8h-5.5v-20.8h-7.1c-0.9,11-2.1,21.1-9.2,21.1c-0.9,0-1.8-0.1-2.9-0.5v-4.9
			c0.5,0.2,1,0.2,1.8,0.2c4.3-0.3,4.6-11.9,5.2-21H894.8z"/>
		<path class="st2" d="M918.5,1008.2v4.9h-12.6v5.5h11.5v4.8h-11.5v5.8h12.9v4.9h-18.4v-25.8H918.5z"/>
		<path class="st2" d="M945.7,1008.2v25.8h-5.5v-10.4h-11.6v10.4h-5.5v-25.8h5.5v10.4h11.6v-10.4H945.7z"/>
		<path class="st2" d="M968.3,1033.9v-13.3c0-1.2,0-2.5,0.1-3.5l-12,16.8h-5.2v-25.8h5.5v13.3c0,1.2,0,2.5-0.1,3.5l12-16.8h5.2v25.8
			H968.3z"/>
		<path class="st2" d="M977.2,1033.9l7.2-9.5c-3.3-1.1-5.8-3.5-5.8-7.7c0-6.2,4.9-8.6,10.3-8.6h10.5v25.8h-5.5v-8.8h-3.9l-6.5,8.8
			H977.2z M989,1020.6h4.9v-7.5H989c-2.8,0-4.7,1.2-4.7,3.8C984.3,1019.4,986.2,1020.6,989,1020.6z"/>
		<path class="st2" d="M1030.3,1033.9v-13.3c0-1.2,0-2.5,0.1-3.5l-12,16.8h-5.2v-25.8h5.5v13.3c0,1.2,0,2.5-0.1,3.5l12-16.8h5.2
			v25.8H1030.3z"/>
		<path class="st2" d="M1064,1008.2v25.8h-5.5v-10.4h-11.6v10.4h-5.5v-25.8h5.5v10.4h11.6v-10.4H1064z"/>
		<path class="st2" d="M1080.4,1035.4v-3.2c-7.7-0.3-12.8-4.3-12.8-11.1c0-6.8,5.1-10.8,12.8-11.1v-3.2h5.3v3.2
			c7.7,0.4,12.7,4.3,12.7,11.1s-5,10.7-12.7,11.1v3.2H1080.4z M1080.4,1027.5v-13c-5.3,0.4-7.3,3.2-7.3,6.5
			C1073.1,1024.3,1075,1027.2,1080.4,1027.5z M1085.7,1027.5c5.2-0.4,7.2-3.2,7.2-6.5s-1.9-6.1-7.2-6.5V1027.5z"/>
		<path class="st2" d="M1114.2,1007.6c9.1,0,13.7,6.4,13.7,13.4c0,7-4.6,13.4-13.7,13.4c-9.1,0-13.7-6.4-13.7-13.4
			C1100.5,1014.1,1105.1,1007.6,1114.2,1007.6z M1114.2,1012.8c-5.4,0-8.1,3.8-8.1,8.3s2.7,8.3,8.1,8.3c5.3,0,8-3.8,8-8.3
			S1119.6,1012.8,1114.2,1012.8z"/>
		<path class="st2" d="M1141.8,1008.2c6.2,0,11.1,2,11.1,8.7s-4.9,8.7-11.1,8.7h-4.2v8.5h-5.5v-25.8H1141.8z M1142,1013h-4.5v7.6
			h4.5c2.8,0,5.2-0.8,5.2-3.8C1147.2,1013.8,1144.8,1013,1142,1013z"/>
		<path class="st2" d="M1184.5,1008.2v25.8h-5.5v-15.9l-6.8,10.3h-3.2l-6.8-10.4v15.9h-5.5v-25.8h5.1l8.8,13.4l8.8-13.4H1184.5z"/>
		<path class="st2" d="M1187.4,1033.9l10.5-25.8h6l10.5,25.8h-5.7l-1.9-4.8H1195l-1.9,4.8H1187.4z M1196.8,1024.6h8.3l-3.6-9.3
			c-0.2-0.5-0.4-1-0.6-2c-0.2,1-0.4,1.5-0.6,2L1196.8,1024.6z"/>
		<path class="st2" d="M1238.2,1039.6v-5.6h-20.9v-25.8h5.5v20.8h11.4v-20.8h5.5v20.8h3.3v10.6H1238.2z"/>
		<path class="st2" d="M1264,1033.9v-13.3c0-1.2,0-2.5,0.1-3.5l-12,16.8h-5.2v-25.8h5.5v13.3c0,1.2,0,2.5-0.1,3.5l12-16.8h5.2v25.8
			H1264z"/>
		<path class="st2" d="M1287.4,1007.6c9.1,0,13.7,6.4,13.7,13.4c0,7-4.6,13.4-13.7,13.4c-9.1,0-13.7-6.4-13.7-13.4
			C1273.7,1014.1,1278.2,1007.6,1287.4,1007.6z M1287.4,1012.8c-5.4,0-8.1,3.8-8.1,8.3s2.7,8.3,8.1,8.3c5.3,0,8-3.8,8-8.3
			S1292.7,1012.8,1287.4,1012.8z"/>
		<path class="st2" d="M1327.8,1008.2v25.8h-5.5v-10.4h-11.6v10.4h-5.5v-25.8h5.5v10.4h11.6v-10.4H1327.8z"/>
		<path class="st2" d="M1356,1008.2v25.8h-5.5v-10.4h-11.6v10.4h-5.5v-25.8h5.5v10.4h11.6v-10.4H1356z"/>
		<path class="st2" d="M1373.8,1007.6c9.1,0,13.7,6.4,13.7,13.4c0,7-4.6,13.4-13.7,13.4c-9.1,0-13.7-6.4-13.7-13.4
			C1360.1,1014.1,1364.6,1007.6,1373.8,1007.6z M1373.8,1012.8c-5.4,0-8.1,3.8-8.1,8.3s2.7,8.3,8.1,8.3c5.3,0,8-3.8,8-8.3
			S1379.1,1012.8,1373.8,1012.8z"/>
		<path class="st2" d="M1404.7,1018.9v4.3H1391v-4.3H1404.7z"/>
		<path class="st2" d="M1409.6,1033.9v-25.8h5.5v10.2h4.2l6.5-10.2h6.2l-8.4,12.6l8.8,13.2h-6.1l-7-10.5h-4.2v10.5H1409.6z"/>
		<path class="st2" d="M1446.1,1007.6c9.1,0,13.7,6.4,13.7,13.4c0,7-4.6,13.4-13.7,13.4c-9.1,0-13.7-6.4-13.7-13.4
			C1432.4,1014.1,1437,1007.6,1446.1,1007.6z M1446.1,1012.8c-5.4,0-8.1,3.8-8.1,8.3s2.7,8.3,8.1,8.3c5.3,0,8-3.8,8-8.3
			S1451.5,1012.8,1446.1,1012.8z"/>
		<path class="st2" d="M1491.8,1008.2v25.8h-5.5v-15.9l-6.8,10.3h-3.2l-6.8-10.4v15.9h-5.5v-25.8h5.1l8.8,13.4l8.8-13.4H1491.8z"/>
		<path class="st2" d="M1525.3,1008.2v25.8h-5.5v-15.9l-6.8,10.3h-3.2l-6.8-10.4v15.9h-5.5v-25.8h5.1l8.8,13.4l8.8-13.4H1525.3z"/>
		<path class="st2" d="M1534.9,1034.5c-1.3,0-2.6-0.3-3.9-0.6v-4.7c0.9,0.3,1.9,0.5,3,0.5c1.7,0,3.1-0.4,4-2.3l0.4-0.9l-10.3-18.2
			h6.1l6.8,13.3l5.6-13.3h6.1l-9.4,19.9C1541,1033.1,1538.1,1034.5,1534.9,1034.5z"/>
		<path class="st2" d="M1578,1008.2v25.8h-5.5v-10.4h-11.6v10.4h-5.5v-25.8h5.5v10.4h11.6v-10.4H1578z"/>
		<path class="st2" d="M1600.6,1033.9v-13.3c0-1.2,0-2.5,0.1-3.5l-12,16.8h-5.2v-25.8h5.5v13.3c0,1.2,0,2.5-0.1,3.5l12-16.8h5.2
			v25.8H1600.6z"/>
		<path class="st2" d="M1611.7,1033.9v-25.8h5.5v10.2h4.2l6.5-10.2h6.2l-8.4,12.6l8.8,13.2h-6.1l-7-10.5h-4.2v10.5H1611.7z"/>
		<path class="st2" d="M1634.5,1033.9l10.5-25.8h6l10.5,25.8h-5.7l-1.9-4.8h-11.8l-1.9,4.8H1634.5z M1643.9,1024.6h8.3l-3.6-9.3
			c-0.2-0.5-0.4-1-0.6-2c-0.2,1-0.4,1.5-0.6,2L1643.9,1024.6z"/>
		<path class="st2" d="M1685.3,1039.6v-5.6h-20.9v-25.8h5.5v20.8h11.4v-20.8h5.5v20.8h3.3v10.6H1685.3z"/>
		<path class="st2" d="M1711.1,1033.9v-13.3c0-1.2,0-2.5,0.1-3.5l-12,16.8h-5.2v-25.8h5.5v13.3c0,1.2,0,2.5-0.1,3.5l12-16.8h5.2
			v25.8H1711.1z"/>
		<path class="st2" d="M1734.5,1007.6c9.1,0,13.7,6.4,13.7,13.4c0,7-4.6,13.4-13.7,13.4c-9.1,0-13.7-6.4-13.7-13.4
			C1720.8,1014.1,1725.3,1007.6,1734.5,1007.6z M1734.5,1012.8c-5.4,0-8.1,3.8-8.1,8.3s2.7,8.3,8.1,8.3c5.3,0,8-3.8,8-8.3
			S1739.8,1012.8,1734.5,1012.8z"/>
		<path class="st2" d="M1774.9,1008.2v25.8h-5.5v-10.4h-11.6v10.4h-5.5v-25.8h5.5v10.4h11.6v-10.4H1774.9z"/>
		<path class="st2" d="M1803.1,1008.2v25.8h-5.5v-10.4H1786v10.4h-5.5v-25.8h5.5v10.4h11.6v-10.4H1803.1z"/>
		<path class="st2" d="M1808.6,1033.9v-25.8h5.5v8.5h4.2c6.2,0,11.1,2,11.1,8.7c0,6.7-4.9,8.7-11.1,8.7H1808.6z M1814.1,1029.1h4.5
			c2.8,0,5.2-0.8,5.2-3.8s-2.4-3.8-5.2-3.8h-4.5V1029.1z M1831.6,1033.9v-25.8h5.5v25.8H1831.6z"/>
		<path class="st2" d="M1839.7,1033.9l9.3-13.4l-8.7-12.4h6.4l5.7,8.5l5.7-8.5h6.5l-8.7,12.4l9.3,13.4h-6.5l-6.2-9.4l-6.3,9.4
			H1839.7z"/>
	</g>
	<g class="st1">
		<path class="st2" d="M498.6,1087.2v7.1h-11.4v29.9h-7.9v-29.9H468v-7.1H498.6z"/>
		<path class="st2" d="M529.3,1087.2v7h-18.1v7.9h16.5v6.9h-16.5v8.3h18.5v7h-26.4v-37L529.3,1087.2L529.3,1087.2z"/>
		<path class="st2" d="M531.6,1124.2l13.3-19.2l-12.5-17.8h9.3l8.2,12.2l8.1-12.2h9.3l-12.5,17.8l13.3,19.2h-9.3l-8.9-13.5l-9,13.5
			H531.6z"/>
		<path class="st2" d="M604.2,1087.2v37h-7.9v-14.9h-16.6v14.9h-7.9v-37h7.9v14.9h16.6v-14.9H604.2z"/>
		<path class="st2" d="M629.8,1086.4c13.1,0,19.7,9.2,19.7,19.2s-6.6,19.2-19.7,19.2s-19.7-9.2-19.7-19.2
			C610.1,1095.6,616.7,1086.4,629.8,1086.4z M629.8,1093.8c-7.7,0-11.6,5.4-11.6,11.9s3.9,11.9,11.6,11.9c7.7,0,11.5-5.4,11.5-11.9
			S637.5,1093.8,629.8,1093.8z"/>
		<path class="st2" d="M686.4,1087.2v37h-7.9v-29.9h-10.2c-1.3,15.8-3,30.3-13.2,30.3c-1.3,0-2.6-0.2-4.1-0.7v-7
			c0.7,0.2,1.5,0.3,2.5,0.3c6.2-0.4,6.6-17.1,7.5-30.1L686.4,1087.2L686.4,1087.2z"/>
		<path class="st2" d="M712,1086.4c13.1,0,19.7,9.2,19.7,19.2s-6.6,19.2-19.7,19.2c-13.1,0-19.7-9.2-19.7-19.2
			S698.9,1086.4,712,1086.4z M712,1093.8c-7.7,0-11.6,5.4-11.6,11.9s3.9,11.9,11.6,11.9c7.7,0,11.5-5.4,11.5-11.9
			S719.6,1093.8,712,1093.8z"/>
		<path class="st2" d="M737.5,1124.2v-37h25.8v7.1h-17.9v29.9L737.5,1124.2L737.5,1124.2z"/>
		<path class="st2" d="M792.5,1124.2v-19.1c0-1.7,0-3.5,0.2-5.1l-17.2,24.2H768v-37h7.9v19.1c0,1.7,0,3.5-0.2,5.1l17.2-24.2h7.5v37
			H792.5z"/>
		<path class="st2" d="M832.9,1124.2v-19.1c0-1.7,0-3.5,0.2-5.1l-17.2,24.2h-7.5v-37h7.9v19.1c0,1.7,0,3.5-0.2,5.1l17.2-24.2h7.5v37
			H832.9z M832.9,1082.2v-5.8c-2.8,1.8-5.4,2.3-8.3,2.3c-2.8,0-5.4-0.5-8.3-2.3v5.8c2.3,1.6,4.8,2.4,8.3,2.4
			S830.6,1083.8,832.9,1082.2z"/>
		<path class="st2" d="M885.1,1124.2v-19.1c0-1.7,0-3.5,0.2-5.1l-17.2,24.2h-7.5v-37h7.9v19.1c0,1.7,0,3.5-0.2,5.1l17.2-24.2h7.5v37
			H885.1z"/>
		<path class="st2" d="M941,1087.2v37H933v-22.8l-9.8,14.8h-4.6l-9.8-14.9v22.8H901v-37h7.3l12.7,19.2l12.6-19.2L941,1087.2
			L941,1087.2z"/>
		<path class="st2" d="M975,1087.2v7h-18.1v7.9h16.5v6.9h-16.5v8.3h18.5v7h-26.4v-37L975,1087.2L975,1087.2z"/>
		<path class="st2" d="M1014,1087.2v37h-7.9v-14.9h-16.6v14.9h-7.9v-37h7.9v14.9h16.6v-14.9H1014z"/>
		<path class="st2" d="M1046.5,1124.2v-19.1c0-1.7,0.1-3.5,0.2-5.1l-17.2,24.2h-7.5v-37h7.9v19.1c0,1.7-0.1,3.5-0.2,5.1l17.2-24.2
			h7.4v37H1046.5z"/>
		<path class="st2" d="M1114.1,1087.2v37h-7.9v-22.8l-9.8,14.8h-4.6l-9.8-14.9v22.8h-7.9v-37h7.3l12.7,19.2l12.6-19.2L1114.1,1087.2
			L1114.1,1087.2z"/>
		<path class="st2" d="M1127.9,1124.9c-1.8,0-3.8-0.4-5.6-0.9v-6.7c1.3,0.4,2.8,0.7,4.3,0.7c2.4,0,4.4-0.6,5.7-3.3l0.6-1.3
			l-14.8-26.2h8.8l9.7,19l8.1-19h8.7l-13.4,28.6C1136.7,1122.9,1132.6,1124.9,1127.9,1124.9z"/>
		<path class="st2" d="M1153,1124.2l13.3-19.2l-12.5-17.8h9.3l8.2,12.2l8.1-12.2h9.3l-12.5,17.8l13.3,19.2h-9.3l-8.9-13.5l-9,13.5
			H1153z"/>
		<path class="st2" d="M1189.4,1124.2l15.1-37h8.6l15.1,37h-8.2l-2.7-6.9h-16.9l-2.8,6.9H1189.4z M1202.8,1110.7h11.9l-5.2-13.3
			c-0.3-0.7-0.5-1.5-0.8-2.9c-0.3,1.4-0.5,2.2-0.8,2.9L1202.8,1110.7z"/>
		<path class="st2" d="M1272.3,1087.2v37h-7.9v-22.8l-9.8,14.8h-4.6l-9.8-14.9v22.8h-7.9v-37h7.3l12.7,19.2l12.6-19.2L1272.3,1087.2
			L1272.3,1087.2z"/>
		<path class="st2" d="M1320.3,1087.2v37h-7.9v-22.8l-9.8,14.8h-4.6l-9.8-14.9v22.8h-7.9v-37h7.3l12.7,19.2l12.6-19.2L1320.3,1087.2
			L1320.3,1087.2z"/>
		<path class="st2" d="M1324.4,1124.2l15.1-37h8.6l15.1,37h-8.2l-2.7-6.9h-16.9l-2.8,6.9H1324.4z M1337.8,1110.7h11.9l-5.2-13.3
			c-0.3-0.7-0.5-1.5-0.8-2.9c-0.3,1.4-0.5,2.2-0.8,2.9L1337.8,1110.7z"/>
		<path class="st2" d="M1364.4,1132.2v-15h4.3c4.8-8.5,5.9-19.7,5.9-30h25.2v30h4.7v15h-7v-8h-26.1v8H1364.4z M1377.2,1117.2h14.7
			v-22.9h-9.8C1381.5,1102.5,1380.3,1111.1,1377.2,1117.2z"/>
		<path class="st2" d="M1406.3,1124.2l15.1-37h8.6l15.1,37h-8.2l-2.7-6.9h-16.9l-2.8,6.9H1406.3z M1419.7,1110.7h11.9l-5.2-13.3
			c-0.3-0.7-0.5-1.5-0.8-2.9c-0.3,1.4-0.5,2.2-0.8,2.9L1419.7,1110.7z"/>
		<path class="st2" d="M1457.1,1124.2l15.1-37h8.6l15.1,37h-8.2l-2.7-6.9H1468l-2.8,6.9H1457.1z M1470.5,1110.7h11.9l-5.2-13.3
			c-0.3-0.7-0.5-1.5-0.8-2.9c-0.3,1.4-0.5,2.2-0.8,2.9L1470.5,1110.7z"/>
		<path class="st2" d="M1531.9,1087.2v37h-7.9v-29.9h-10.2c-1.3,15.8-3,30.3-13.2,30.3c-1.3,0-2.6-0.2-4.1-0.7v-7
			c0.7,0.2,1.5,0.3,2.5,0.3c6.2-0.4,6.6-17.1,7.5-30.1L1531.9,1087.2L1531.9,1087.2z"/>
		<path class="st2" d="M1558.7,1102.6v6.2H1539v-6.2H1558.7z"/>
		<path class="st2" d="M1558.9,1124.2l13.3-19.2l-12.5-17.8h9.3l8.2,12.2l8.1-12.2h9.3l-12.5,17.8l13.3,19.2h-9.3l-8.9-13.5l-9,13.5
			H1558.9z"/>
		<path class="st2" d="M1614.8,1086.4c13.1,0,19.7,9.2,19.7,19.2s-6.6,19.2-19.7,19.2s-19.7-9.2-19.7-19.2
			C1595.1,1095.6,1601.6,1086.4,1614.8,1086.4z M1614.8,1093.8c-7.7,0-11.6,5.4-11.6,11.9s3.9,11.9,11.6,11.9
			c7.7,0,11.5-5.4,11.5-11.9C1626.3,1099.2,1622.4,1093.8,1614.8,1093.8z"/>
		<path class="st2" d="M1654.3,1087.2c8.9,0,16,2.9,16,12.4c0,9.6-7,12.4-16,12.4h-6v12.2h-7.9v-37L1654.3,1087.2L1654.3,1087.2z
			 M1654.6,1094.1h-6.4v10.9h6.4c4.1,0,7.5-1.1,7.5-5.4C1662.1,1095.2,1658.7,1094.1,1654.6,1094.1z"/>
		<path class="st2" d="M1668.3,1124.2l15.1-37h8.6l15.1,37h-8.2l-2.7-6.9h-16.9l-2.8,6.9H1668.3z M1681.8,1110.7h11.9l-5.2-13.3
			c-0.3-0.7-0.5-1.5-0.8-2.9c-0.3,1.4-0.5,2.2-0.8,2.9L1681.8,1110.7z"/>
		<path class="st2" d="M1723,1124.9c-4.4,0-8.8-0.6-13.7-2.4v-7.6c4.9,2.4,9.2,2.9,13.1,2.8c4,0,7.9-1,7.9-4.8
			c0-3.4-3.1-4.3-6.7-4.3h-8.3l0.1-7h7.8c3.5,0,5.8-1.3,5.8-3.9c0-3-2.6-4.2-7.3-4.2c-3.3-0.1-7.1,0.7-11.6,2.9v-7.6
			c4.3-1.8,8.4-2.4,12.3-2.4c8.7,0,14.6,3.3,14.6,10.1c0,4.1-2.3,6.9-5.9,8.1c3.9,1.1,7.4,4,7.4,9.5
			C1738.3,1122.4,1730.4,1124.9,1723,1124.9z"/>
		<path class="st2" d="M1784.3,1087.2v37h-7.9v-22.8l-9.8,14.8h-4.6l-9.8-14.9v22.8h-7.9v-37h7.3l12.7,19.2l12.6-19.2L1784.3,1087.2
			L1784.3,1087.2z"/>
		<path class="st2" d="M1816.7,1124.2v-19.1c0-1.7,0.1-3.5,0.2-5.1l-17.2,24.2h-7.4v-37h7.9v19.1c0,1.7-0.1,3.5-0.2,5.1l17.2-24.2
			h7.4v37H1816.7z"/>
		<path class="st2" d="M1857.1,1124.2v-19.1c0-1.7,0.1-3.5,0.2-5.1l-17.2,24.2h-7.4v-37h7.9v19.1c0,1.7-0.1,3.5-0.2,5.1l17.2-24.2
			h7.4v37H1857.1z M1857.1,1082.2v-5.8c-2.8,1.8-5.4,2.3-8.3,2.3c-2.8,0-5.4-0.5-8.2-2.3v5.8c2.3,1.6,4.8,2.4,8.2,2.4
			C1852.3,1084.6,1854.8,1083.8,1857.1,1082.2z"/>
	</g>
</g>
<g>
	<g>
		<path class="st3" d="M523.7,924.4v51.5h-11v-31.7L499,964.8h-6.4L479,944.1v31.8h-11v-51.5h10.2l17.6,26.8l17.6-26.8H523.7z"/>
		<path class="st3" d="M579.3,924.4v32.1c0,15.2-11.2,20.4-22.6,20.4c-11.4,0-22.6-5.2-22.6-20.4v-32.1h11v31.5
			c0,8.2,4.7,11,11.5,11c6.9,0,11.6-2.9,11.6-11v-31.5H579.3z"/>
		<path class="st3" d="M635,924.4v51.5h-11v-20.7h-23.1v20.7h-11v-51.5h11v20.7H624v-20.7H635z"/>
		<path class="st3" d="M640.8,975.8l21-51.5h11.9l21,51.5h-11.4l-3.8-9.6H656l-3.8,9.6H640.8z M659.4,957.1H676l-7.2-18.5
			c-0.4-1-0.7-2.1-1.1-4c-0.4,2-0.7,3-1.2,4L659.4,957.1z"/>
		<path class="st3" d="M756,924.4v51.5h-11v-31.7l-13.6,20.7H725l-13.6-20.7v31.8h-11v-51.5h10.2l17.7,26.8l17.6-26.8H756z"/>
		<path class="st3" d="M822.7,924.4v51.5h-11v-31.7l-13.6,20.7h-6.4l-13.6-20.7v31.8h-11v-51.5h10.2l17.7,26.8l17.6-26.8H822.7z"/>
		<path class="st3" d="M828.5,975.8l21-51.5h11.9l21,51.5H871l-3.8-9.6h-23.5l-3.8,9.6H828.5z M847.2,957.1h16.6l-7.2-18.5
			c-0.4-1-0.7-2.1-1.1-4c-0.4,2-0.7,3-1.2,4L847.2,957.1z"/>
		<path class="st3" d="M907.4,924.4c18.3,0,27,10.8,27,25.7c0,14.9-8.7,25.7-27,25.7h-19.3v-51.5L907.4,924.4L907.4,924.4z
			 M907.4,934.1h-8.2v32.1h8.2c10.2,0,15.7-5.4,15.7-16C923.1,939.5,917.6,934.1,907.4,934.1z"/>
		<path class="st3" d="M951.6,975.8l21-51.5h11.9l21,51.5h-11.4l-3.8-9.6h-23.5l-3.8,9.6H951.6z M970.3,957.1h16.6l-7.2-18.5
			c-0.4-1-0.7-2.1-1.1-4c-0.4,2-0.7,3-1.2,4L970.3,957.1z"/>
		<path class="st3" d="M1022.3,924.4v41.5h25.2v9.9h-36.3v-51.5H1022.3z"/>
		<path class="st3" d="M1074.6,945.8v8.7h-27.3v-8.7H1074.6z"/>
		<path class="st3" d="M1074.8,975.8l18.4-26.7l-17.3-24.8h12.9l11.4,16.9l11.3-16.9h12.9l-17.3,24.8l18.4,26.7h-12.9l-12.4-18.8
			l-12.5,18.8H1074.8z"/>
		<path class="st3" d="M1152.6,923.3c18.2,0,27.3,12.8,27.3,26.8c0,14-9.1,26.8-27.3,26.8s-27.3-12.8-27.3-26.8
			C1125.2,936.1,1134.3,923.3,1152.6,923.3z M1152.6,933.6c-10.7,0-16.1,7.5-16.1,16.5s5.4,16.5,16.1,16.5c10.7,0,16-7.5,16-16.5
			C1168.6,941.1,1163.2,933.6,1152.6,933.6z"/>
		<path class="st3" d="M1188.1,975.8v-51.5h21.2c10,0,20.4,3.8,20.4,16.8c0,8.8-5,13.3-11.3,15.3l15.4,19.4h-12.7l-13.9-18h-8.1v18
			L1188.1,975.8L1188.1,975.8z M1199.1,948.6h10.7c4.6,0,8.7-2.1,8.7-7.3c0-5.3-4-7.3-8.7-7.3h-10.7V948.6z"/>
		<path class="st3" d="M1234.7,975.8l21-51.5h11.9l20.9,51.5h-11.4l-3.8-9.6h-23.5l-3.8,9.6H1234.7z M1253.4,957.1h16.6l-7.2-18.5
			c-0.4-1-0.7-2.1-1.1-4c-0.4,2-0.7,3-1.2,4L1253.4,957.1z"/>
		<path class="st3" d="M1291.2,975.8v-7.9l24.8-33.6h-23.8v-9.9h38.3v7.9l-24.9,33.6h25.8v9.9H1291.2z"/>
		<path class="st3" d="M1395.2,924.4v51.5h-11v-31.7l-13.6,20.7h-6.4l-13.6-20.7v31.8h-11v-51.5h10.2l17.7,26.8l17.6-26.8H1395.2z"
			/>
		<path class="st3" d="M1417.2,924.4v51.5h-11v-51.5H1417.2z"/>
		<path class="st3" d="M1443.1,975.8v-18.2l-20.2-33.2h12.4l13.2,23.1l13.2-23.1h12.4l-20.1,33.2v18.2H1443.1z"/>
		<path class="st3" d="M1493.3,975.8v-51.5h10.4l24,33.6c-0.2-2.1-0.2-4.7-0.2-7.1v-26.5h11v51.5h-10.4l-24-33.6
			c0.2,2.1,0.2,4.7,0.2,7.1v26.5H1493.3z"/>
		<path class="st3" d="M1573.9,923.3c18.2,0,27.3,12.8,27.3,26.8c0,14-9.1,26.8-27.3,26.8s-27.3-12.8-27.3-26.8
			C1546.6,936.1,1555.7,923.3,1573.9,923.3z M1573.9,933.6c-10.7,0-16.1,7.5-16.1,16.5s5.4,16.5,16.1,16.5c10.7,0,16-7.5,16-16.5
			C1590,941.1,1584.6,933.6,1573.9,933.6z"/>
		<path class="st3" d="M1665.1,924.4v51.5h-11v-31.7l-13.6,20.7h-6.4l-13.6-20.7v31.8h-11v-51.5h10.2l17.7,26.8l17.6-26.8H1665.1z"
			/>
		<path class="st3" d="M1687.2,924.4v51.5h-11v-51.5H1687.2z"/>
		<path class="st3" d="M1717.5,924.4c18.3,0,27,10.8,27,25.7c0,14.9-8.7,25.7-27,25.7h-19.3v-51.5L1717.5,924.4L1717.5,924.4z
			 M1717.5,934.1h-8.2v32.1h8.2c10.2,0,15.7-5.4,15.7-16C1733.2,939.5,1727.7,934.1,1717.5,934.1z"/>
		<path class="st3" d="M1745.1,975.8l21-51.5h11.9l20.9,51.5h-11.4l-3.8-9.6h-23.5l-3.8,9.6H1745.1z M1763.8,957.1h16.6l-7.2-18.5
			c-0.4-1-0.7-2.1-1.1-4c-0.4,2-0.7,3-1.2,4L1763.8,957.1z"/>
		<path class="st3" d="M1827.6,923.3c5.5,0,11,1.2,15.8,3.3v10.5c-3.9-2.6-9.1-4-14.3-4c-9.2,0-18.2,4.8-18.2,16.9
			c0,13.7,10.1,17.1,17.7,17.1c2.2,0,4.1-0.4,5.7-1v-18.4h10.5v25.5c-5.2,2.2-11,3.5-16.8,3.5c-14.4,0-28.3-7.9-28.3-26.8
			C1799.6,931.4,1813.5,923.3,1827.6,923.3z"/>
		<path class="st3" d="M1865.1,924.4v51.5h-11v-51.5H1865.1z"/>
	</g>
	<g>
		<path class="st3" d="M468,1049.9l24.8-60.6h14l24.7,60.6H518l-4.4-11.3h-27.7l-4.5,11.3H468z M490,1027.8h19.6l-8.5-21.7
			c-0.4-1.2-0.9-2.4-1.3-4.8c-0.4,2.3-0.9,3.5-1.4,4.8L490,1027.8z"/>
		<path class="st3" d="M531.2,1049.9l21.7-31.4l-20.4-29.2h15.1l13.4,19.9l13.3-19.9h15.2l-20.4,29.2l21.7,31.4h-15.2l-14.6-22.1
			l-14.7,22.1H531.2z"/>
		<path class="st3" d="M623.4,989.3c12.9,0,20.9,4.9,20.9,15.3c0,7.1-3.8,11.4-9.2,13.2c6,1.7,11.6,6.1,11.6,15.1
			c0,13.8-13.2,17-23.8,17h-26v-60.6H623.4z M623.5,1023.8h-13.7v15.6h13c5.8,0,11-1.2,11-7.8
			C633.8,1025.2,628.6,1023.8,623.5,1023.8z M622.2,1000h-12.4v13.8h13.1c4.9,0,8.5-2.3,8.5-6.9C631.4,1002.1,628,1000,622.2,1000z"
			/>
		<path class="st3" d="M685.1,988.1c21.5,0,32.2,15.1,32.2,31.5c0,16.4-10.7,31.5-32.2,31.5s-32.2-15.1-32.2-31.5
			C652.9,1003.2,663.6,988.1,685.1,988.1z M685.1,1000.2c-12.6,0-19,8.8-19,19.5c0,10.6,6.3,19.5,19,19.5c12.5,0,18.9-8.8,18.9-19.5
			C703.9,1009,697.6,1000.2,685.1,1000.2z"/>
		<path class="st3" d="M726.9,1049.9v-60.6h24.9c11.8,0,24.1,4.4,24.1,19.7c0,10.4-5.9,15.7-13.2,18l18.1,22.8h-15l-16.4-21.2h-9.5
			v21.2H726.9z M739.9,1017.9h12.5c5.5,0,10.2-2.4,10.2-8.6c0-6.2-4.8-8.6-10.2-8.6h-12.5V1017.9z"/>
		<path class="st3" d="M816,988.1c21.5,0,32.2,15.1,32.2,31.5c0,16.4-10.7,31.5-32.2,31.5s-32.2-15.1-32.2-31.5
			C783.8,1003.2,794.5,988.1,816,988.1z M816,1000.2c-12.6,0-19,8.8-19,19.5c0,10.6,6.3,19.5,19,19.5c12.5,0,18.9-8.8,18.9-19.5
			C834.8,1009,828.5,1000.2,816,1000.2z"/>
		<path class="st3" d="M900.6,989.3v11.7H882v48.9h-12.9V1001h-18.6v-11.7H900.6z"/>
		<path class="st3" d="M967.2,989.3v11.7h-18.6v48.9h-12.9V1001H917v-11.7H967.2z"/>
		<path class="st3" d="M1017.5,989.3v11.4h-29.7v12.9h27.1v11.3h-27.1v13.5h30.2v11.4h-43.2v-60.6L1017.5,989.3L1017.5,989.3z"/>
		<path class="st3" d="M1021.3,1049.9l21.7-31.4l-20.4-29.2h15.1l13.4,19.9l13.3-19.9h15.2l-20.4,29.2l21.7,31.4h-15.2l-14.6-22.1
			l-14.7,22.1H1021.3z"/>
		<path class="st3" d="M1087,1049.9v-60.6h12.2l28.2,39.5c-0.2-2.5-0.3-5.5-0.3-8.3v-31.2h13v60.6h-12.2l-28.2-39.5
			c0.2,2.5,0.3,5.5,0.3,8.3v31.2H1087z"/>
		<path class="st3" d="M1181.9,988.1c21.5,0,32.2,15.1,32.2,31.5c0,16.4-10.7,31.5-32.2,31.5s-32.2-15.1-32.2-31.5
			C1149.7,1003.2,1160.4,988.1,1181.9,988.1z M1181.9,1000.2c-12.6,0-18.9,8.8-18.9,19.5c0,10.6,6.3,19.5,18.9,19.5
			c12.6,0,18.9-8.8,18.9-19.5S1194.4,1000.2,1181.9,1000.2z"/>
		<path class="st3" d="M1236.7,989.3v48.9h29.7v11.7h-42.7v-60.6L1236.7,989.3L1236.7,989.3z"/>
		<path class="st3" d="M1300.7,988.1c21.5,0,32.2,15.1,32.2,31.5c0,16.4-10.7,31.5-32.2,31.5s-32.2-15.1-32.2-31.5
			C1268.6,1003.2,1279.3,988.1,1300.7,988.1z M1300.7,1000.2c-12.6,0-18.9,8.8-18.9,19.5c0,10.6,6.3,19.5,18.9,19.5
			c12.6,0,18.9-8.8,18.9-19.5S1313.3,1000.2,1300.7,1000.2z"/>
		<path class="st3" d="M1372.2,988.1c6.5,0,13,1.4,18.6,3.9v12.4c-4.6-3-10.7-4.7-16.9-4.7c-10.8,0-21.5,5.7-21.5,19.9
			c0,16.1,11.9,20.2,20.8,20.2c2.6,0,4.8-0.4,6.7-1.1V1017h12.4v30c-6.1,2.6-13,4.1-19.7,4.1c-17,0-33.3-9.3-33.3-31.5
			C1339.3,997.6,1355.6,988.1,1372.2,988.1z"/>
		<path class="st3" d="M1416.3,989.3v60.6h-13v-60.6H1416.3z"/>
		<path class="st3" d="M1446.8,1049.9v-21.5l-23.7-39.1h14.6l15.5,27.2l15.5-27.2h14.6l-23.6,39.1v21.5H1446.8z"/>
		<path class="st3" d="M1476,1049.9l24.8-60.6h14l24.7,60.6H1526l-4.4-11.3h-27.7l-4.5,11.3H1476z M1498,1027.8h19.6l-8.5-21.7
			c-0.4-1.2-0.9-2.4-1.3-4.8c-0.4,2.3-0.9,3.5-1.4,4.8L1498,1027.8z"/>
		<path class="st3" d="M1559.2,989.3v48.9h29.7v11.7h-42.7v-60.6L1559.2,989.3L1559.2,989.3z"/>
		<path class="st3" d="M1590.3,1049.9l24.8-60.6h14l24.7,60.6h-13.4l-4.4-11.3h-27.7l-4.5,11.3H1590.3z M1612.3,1027.8h19.6
			l-8.5-21.7c-0.4-1.2-0.9-2.4-1.3-4.8c-0.4,2.3-0.9,3.5-1.4,4.8L1612.3,1027.8z"/>
		<path class="st3" d="M1660.5,1049.9v-60.6h24.9c11.8,0,24.1,4.4,24.1,19.7c0,10.4-5.9,15.7-13.2,18l18.1,22.8h-15l-16.4-21.2h-9.5
			v21.2H1660.5z M1673.4,1017.9h12.6c5.4,0,10.2-2.4,10.2-8.6c0-6.2-4.8-8.6-10.2-8.6h-12.6V1017.9z"/>
		<path class="st3" d="M1734.6,989.3v60.6h-13v-60.6H1734.6z"/>
		<path class="st3" d="M1777.2,988.1c6.5,0,13,1.4,18.6,3.9v12.4c-4.6-3-10.7-4.7-16.9-4.7c-10.8,0-21.5,5.7-21.5,19.9
			c0,16.1,11.9,20.2,20.8,20.2c2.6,0,4.8-0.4,6.7-1.1V1017h12.4v30c-6.1,2.6-13,4.1-19.7,4.1c-17,0-33.3-9.3-33.3-31.5
			C1744.3,997.6,1760.6,988.1,1777.2,988.1z"/>
		<path class="st3" d="M1801.6,1049.9l24.8-60.6h14l24.7,60.6h-13.4l-4.4-11.3h-27.7l-4.5,11.3H1801.6z M1823.6,1027.8h19.6
			l-8.5-21.7c-0.4-1.2-0.9-2.4-1.3-4.8c-0.4,2.3-0.9,3.5-1.4,4.8L1823.6,1027.8z"/>
	</g>
	<g>
		<path class="st3" d="M481.4,1061.9v62.4H468v-62.4H481.4z"/>
		<path class="st3" d="M487.5,1124.3l22.4-32.4l-21-30.1h15.6l13.8,20.5l13.7-20.5h15.7l-21,30.1l22.4,32.4h-15.7l-15.1-22.7
			l-15.2,22.7H487.5z"/>
		<path class="st3" d="M601.3,1061.9v12h-19.2v50.4h-13.3V1074h-19.2v-12H601.3z"/>
		<path class="st3" d="M622.6,1061.9v62.4h-13.4v-62.4H622.6z"/>
		<path class="st3" d="M656,1060.7c7.4,0,14.9,1.8,20.2,4.8v12.5c-5.3-3.7-12.3-5.6-19.3-5.5c-6.8,0.1-10.2,2-10.2,5.8
			c0,10.8,34.2,6.8,34.2,29c0,14-11.2,18.4-24.3,18.4c-8.7,0-16.7-2.1-23.1-5.6v-12.8c7.1,4.7,15,6.6,22.1,6.6
			c7.2,0,11.7-1.5,11.7-6c0-11.7-34.2-7.3-34.2-29.4C633.2,1066.4,643.7,1060.7,656,1060.7z"/>
		<path class="st3" d="M719.7,1060.7c22.1,0,33.2,15.5,33.2,32.5s-11.1,32.5-33.2,32.5c-22.1,0-33.2-15.5-33.2-32.5
			C686.5,1076.2,697.6,1060.7,719.7,1060.7z M719.7,1073.1c-13,0-19.5,9.1-19.5,20.1c0,11,6.5,20.1,19.5,20.1
			c12.9,0,19.4-9.1,19.4-20.1C739.1,1082.2,732.6,1073.1,719.7,1073.1z"/>
		<path class="st3" d="M782.8,1060.7c7.4,0,14.9,1.8,20.2,4.8v12.5c-5.3-3.7-12.3-5.6-19.3-5.5c-6.8,0.1-10.2,2-10.2,5.8
			c0,10.8,34.2,6.8,34.2,29c0,14-11.2,18.4-24.3,18.4c-8.7,0-16.7-2.1-23.1-5.6v-12.8c7.1,4.7,15,6.6,22.1,6.6
			c7.2,0,11.7-1.5,11.7-6c0-11.7-34.2-7.3-34.2-29.4C760,1066.4,770.5,1060.7,782.8,1060.7z"/>
		<path class="st3" d="M830.2,1061.9v50.4h30.6v12h-44v-62.4H830.2z"/>
		<path class="st3" d="M862.2,1124.3l25.5-62.4h14.5l25.4,62.4h-13.8l-4.5-11.7h-28.5l-4.6,11.7H862.2z M884.9,1101.6H905l-8.7-22.4
			c-0.5-1.3-0.9-2.5-1.3-4.9c-0.5,2.4-0.9,3.7-1.4,4.9L884.9,1101.6z"/>
		<path class="st3" d="M953.3,1060.7c7.4,0,14.9,1.8,20.2,4.8v12.5c-5.3-3.7-12.3-5.6-19.3-5.5c-6.8,0.1-10.2,2-10.2,5.8
			c0,10.8,34.2,6.8,34.2,29c0,14-11.2,18.4-24.3,18.4c-8.7,0-16.7-2.1-23.1-5.6v-12.8c7.1,4.7,15,6.6,22.1,6.6
			c7.2,0,11.7-1.5,11.7-6c0-11.7-34.2-7.3-34.2-29.4C930.4,1066.4,941,1060.7,953.3,1060.7z"/>
		<path class="st3" d="M1042,1061.9v62.4h-13.4v-25.2h-28v25.2h-13.4v-62.4h13.4v25.2h28v-25.2H1042z"/>
		<path class="st3" d="M1101.5,1061.9v12h-19.2v50.4H1069V1074h-19.2v-12H1101.5z"/>
		<path class="st3" d="M1122.7,1061.9v62.4h-13.4v-62.4H1122.7z"/>
		<path class="st3" d="M1136.1,1124.3v-62.4h25.7c12.1,0,24.8,4.6,24.8,20.3c0,10.7-6.1,16.1-13.7,18.6l18.6,23.5h-15.4l-16.8-21.8
			h-9.8v21.8H1136.1z M1149.5,1091.3h12.9c5.6,0,10.5-2.5,10.5-8.8c0-6.4-4.9-8.8-10.5-8.8h-12.9V1091.3z"/>
		<path class="st3" d="M1212.4,1061.9v62.4h-13.4v-62.4H1212.4z"/>
		<path class="st3" d="M1239.2,1061.9v50.4h30.6v12h-44v-62.4H1239.2z"/>
		<path class="st3" d="M1306.1,1060.7c6.7,0,13.4,1.4,19.2,4v12.8c-4.7-3.1-11.1-4.8-17.4-4.8c-11.2,0-22.1,5.9-22.1,20.5
			c0,16.6,12.2,20.8,21.4,20.8c2.7,0,5-0.4,6.9-1.2v-22.3h12.8v30.9c-6.2,2.7-13.4,4.2-20.3,4.2c-17.5,0-34.3-9.5-34.3-32.5
			C1272.1,1070.5,1289,1060.7,1306.1,1060.7z"/>
		<path class="st3" d="M1331.2,1124.3l25.5-62.4h14.4l25.4,62.4h-13.8l-4.6-11.7h-28.5l-4.6,11.7H1331.2z M1353.9,1101.6h20.2
			l-8.7-22.4c-0.4-1.3-0.9-2.5-1.3-4.9c-0.4,2.4-0.9,3.7-1.4,4.9L1353.9,1101.6z"/>
		<path class="st3" d="M1403.6,1124.3v-62.4h12.6l29.1,40.8c-0.2-2.6-0.3-5.7-0.3-8.6v-32.2h13.4v62.4h-12.6l-29.1-40.8
			c0.2,2.6,0.3,5.7,0.3,8.6v32.2H1403.6z"/>
		<path class="st3" d="M1559,1061.9v62.4h-13.4v-38.4l-16.5,25.1h-7.8l-16.5-25.2v38.5h-13.4v-62.4h12.4l21.4,32.5l21.3-32.5H1559z"
			/>
		<path class="st3" d="M1566,1124.3l25.5-62.4h14.4l25.4,62.4h-13.8l-4.6-11.7h-28.5l-4.6,11.7H1566z M1588.6,1101.6h20.2l-8.7-22.4
			c-0.4-1.3-0.9-2.5-1.3-4.9c-0.4,2.4-0.9,3.7-1.4,4.9L1588.6,1101.6z"/>
		<path class="st3" d="M1638.3,1124.3v-62.4h13.4v24.8h10.1l15.8-24.8h14.9l-20.2,30.4l21.4,32h-14.8l-17-25.5h-10.1v25.5H1638.3z"
			/>
		<path class="st3" d="M1746,1061.9v12h-19.2v50.4h-13.3V1074h-19.2v-12H1746z"/>
		<path class="st3" d="M1740.1,1124.3l25.5-62.4h14.4l25.4,62.4h-13.8l-4.6-11.7h-28.5l-4.6,11.7H1740.1z M1762.7,1101.6h20.2
			l-8.7-22.4c-0.4-1.3-0.9-2.5-1.3-4.9c-0.4,2.4-0.9,3.7-1.4,4.9L1762.7,1101.6z"/>
		<path class="st3" d="M1839.7,1061.9c13.3,0,21.6,5.1,21.6,15.8c0,7.3-3.9,11.8-9.4,13.6c6.2,1.8,11.9,6.3,11.9,15.5
			c0,14.2-13.7,17.5-24.5,17.5h-26.8v-62.4H1839.7z M1839.8,1097.4h-14.1v16.1h13.4c6,0,11.3-1.3,11.3-8
			C1850.4,1098.8,1845.1,1097.4,1839.8,1097.4z M1838.5,1072.9h-12.8v14.3h13.5c5.1,0,8.7-2.3,8.7-7.1
			C1848,1075.1,1844.4,1072.9,1838.5,1072.9z"/>
	</g>
</g>
<g class="st0">
	<g class="st1">
		<path class="st2" d="M499.4,924.2v29h-6.2v-17.9l-7.7,11.7h-3.6l-7.7-11.7v17.9H468v-29h5.8l10,15.1l9.9-15.1H499.4z"/>
		<path class="st2" d="M530.8,924.2v18.1c0,8.6-6.3,11.5-12.7,11.5s-12.7-2.9-12.7-11.5v-18.1h6.2V942c0,4.6,2.7,6.2,6.5,6.2
			c3.9,0,6.5-1.6,6.5-6.2v-17.8H530.8z"/>
		<path class="st2" d="M562.2,924.2v29H556v-11.7h-13v11.7h-6.2v-29h6.2v11.7h13v-11.7H562.2z"/>
		<path class="st2" d="M565.4,953.2l11.9-29h6.7l11.8,29h-6.4l-2.1-5.4H574l-2.2,5.4H565.4z M575.9,942.6h9.4l-4.1-10.4
			c-0.2-0.6-0.4-1.2-0.6-2.3c-0.2,1.1-0.4,1.7-0.7,2.3L575.9,942.6z"/>
		<path class="st2" d="M630.4,924.2v29h-6.2v-17.9l-7.7,11.7h-3.6l-7.7-11.7v17.9H599v-29h5.8l10,15.1l9.9-15.1H630.4z"/>
		<path class="st2" d="M668,924.2v29h-6.2v-17.9l-7.7,11.7h-3.6l-7.7-11.7v17.9h-6.2v-29h5.8l10,15.1l9.9-15.1H668z"/>
		<path class="st2" d="M671.2,953.2l11.9-29h6.7l11.8,29h-6.4l-2.1-5.4h-13.3l-2.2,5.4H671.2z M681.8,942.6h9.4l-4.1-10.4
			c-0.2-0.6-0.4-1.2-0.6-2.3c-0.2,1.1-0.4,1.7-0.7,2.3L681.8,942.6z"/>
		<path class="st2" d="M715.7,924.2c10.3,0,15.2,6.1,15.2,14.5s-4.9,14.5-15.2,14.5h-10.9v-29L715.7,924.2L715.7,924.2z
			 M715.7,929.7h-4.6v18.1h4.6c5.8,0,8.9-3.1,8.9-9C724.6,932.7,721.5,929.7,715.7,929.7z"/>
		<path class="st2" d="M740.6,953.2l11.9-29h6.7l11.8,29h-6.4l-2.1-5.4h-13.3l-2.2,5.4H740.6z M751.2,942.6h9.4l-4.1-10.4
			c-0.2-0.6-0.4-1.2-0.6-2.3c-0.2,1.1-0.4,1.7-0.7,2.3L751.2,942.6z"/>
		<path class="st2" d="M780.5,924.2v23.4h14.2v5.6h-20.4v-29L780.5,924.2L780.5,924.2z"/>
		<path class="st2" d="M810,936.3v4.9h-15.4v-4.9H810z"/>
		<path class="st2" d="M810.1,953.2l10.4-15l-9.8-14h7.3l6.4,9.5l6.4-9.5h7.3l-9.8,14l10.4,15h-7.3l-7-10.6l-7,10.6H810.1z"/>
		<path class="st2" d="M854,923.6c10.3,0,15.4,7.2,15.4,15.1s-5.1,15.1-15.4,15.1c-10.3,0-15.4-7.2-15.4-15.1S843.7,923.6,854,923.6
			z M854,929.4c-6,0-9.1,4.2-9.1,9.3s3,9.3,9.1,9.3c6,0,9-4.2,9-9.3S860,929.4,854,929.4z"/>
		<path class="st2" d="M874,953.2v-29h11.9c5.6,0,11.5,2.1,11.5,9.5c0,5-2.8,7.5-6.3,8.6l8.7,11h-7.2l-7.8-10.2h-4.6v10.2L874,953.2
			L874,953.2z M880.2,937.9h6c2.6,0,4.9-1.2,4.9-4.1c0-3-2.3-4.1-4.9-4.1h-6V937.9z"/>
		<path class="st2" d="M900.3,953.2l11.9-29h6.7l11.8,29h-6.4l-2.1-5.4h-13.3l-2.2,5.4H900.3z M910.8,942.6h9.4l-4.1-10.4
			c-0.2-0.6-0.4-1.2-0.6-2.3c-0.2,1.1-0.4,1.7-0.7,2.3L910.8,942.6z"/>
		<path class="st2" d="M932.1,953.2v-4.5l14-19h-13.4v-5.6h21.6v4.5l-14.1,19h14.6v5.6H932.1z"/>
		<path class="st2" d="M990.7,924.2v29h-6.2v-17.9l-7.7,11.7h-3.6l-7.7-11.7v17.9h-6.2v-29h5.8l10,15.1l9.9-15.1H990.7z"/>
		<path class="st2" d="M1003.2,924.2v29H997v-29H1003.2z"/>
		<path class="st2" d="M1017.8,953.2v-10.3l-11.4-18.7h7l7.4,13l7.4-13h7l-11.3,18.7v10.3H1017.8z"/>
		<path class="st2" d="M1046,953.2v-29h5.8l13.5,19c-0.1-1.2-0.1-2.7-0.1-4v-15h6.2v29h-5.8l-13.5-19c0.1,1.2,0.1,2.7,0.1,4v15H1046
			z"/>
		<path class="st2" d="M1091.5,923.6c10.3,0,15.4,7.2,15.4,15.1s-5.1,15.1-15.4,15.1s-15.4-7.2-15.4-15.1S1081.2,923.6,1091.5,923.6
			z M1091.5,929.4c-6.1,0-9.1,4.2-9.1,9.3s3,9.3,9.1,9.3c6,0,9-4.2,9-9.3S1097.5,929.4,1091.5,929.4z"/>
		<path class="st2" d="M1142.9,924.2v29h-6.2v-17.9L1129,947h-3.6l-7.7-11.7v17.9h-6.2v-29h5.8l9.9,15.1l9.9-15.1H1142.9z"/>
		<path class="st2" d="M1155.4,924.2v29h-6.2v-29H1155.4z"/>
		<path class="st2" d="M1172.4,924.2c10.3,0,15.2,6.1,15.2,14.5s-4.9,14.5-15.2,14.5h-10.9v-29L1172.4,924.2L1172.4,924.2z
			 M1172.4,929.7h-4.6v18.1h4.6c5.8,0,8.9-3.1,8.9-9C1181.3,932.7,1178.2,929.7,1172.4,929.7z"/>
		<path class="st2" d="M1188,953.2l11.9-29h6.7l11.8,29h-6.4l-2.1-5.4h-13.3l-2.2,5.4H1188z M1198.6,942.6h9.4l-4.1-10.4
			c-0.2-0.6-0.4-1.2-0.6-2.3c-0.2,1.1-0.4,1.7-0.7,2.3L1198.6,942.6z"/>
		<path class="st2" d="M1234.6,923.6c3.1,0,6.2,0.7,8.9,1.9v5.9c-2.2-1.5-5.1-2.2-8.1-2.2c-5.2,0-10.3,2.7-10.3,9.5
			c0,7.7,5.7,9.7,9.9,9.7c1.2,0,2.3-0.2,3.2-0.5v-10.4h5.9v14.4c-2.9,1.2-6.2,2-9.5,2c-8.1,0-16-4.4-16-15.1
			C1218.8,928.2,1226.6,923.6,1234.6,923.6z"/>
		<path class="st2" d="M1255.7,924.2v29h-6.2v-29H1255.7z"/>
		<path class="st2" d="M1276.1,953.2l11.9-29h6.7l11.8,29h-6.4l-2.1-5.4h-13.3l-2.2,5.4H1276.1z M1286.6,942.6h9.4l-4.1-10.4
			c-0.2-0.6-0.4-1.2-0.6-2.3c-0.2,1.1-0.4,1.7-0.7,2.3L1286.6,942.6z"/>
		<path class="st2" d="M1306.4,953.2l10.4-15l-9.8-14h7.3l6.4,9.5l6.4-9.5h7.3l-9.8,14l10.4,15h-7.3l-7-10.6l-7.1,10.6H1306.4z"/>
		<path class="st2" d="M1350.5,924.2c6.2,0,10,2.4,10,7.3c0,3.4-1.8,5.5-4.4,6.3c2.9,0.8,5.6,2.9,5.6,7.2c0,6.6-6.3,8.1-11.4,8.1
			h-12.5v-29L1350.5,924.2L1350.5,924.2z M1350.6,940.7h-6.6v7.5h6.2c2.8,0,5.3-0.6,5.3-3.7C1355.5,941.3,1353.1,940.7,1350.6,940.7
			z M1350,929.3h-5.9v6.6h6.3c2.4,0,4.1-1.1,4.1-3.3C1354.4,930.3,1352.7,929.3,1350,929.3z"/>
		<path class="st2" d="M1380.1,923.6c10.3,0,15.4,7.2,15.4,15.1s-5.1,15.1-15.4,15.1c-10.3,0-15.4-7.2-15.4-15.1
			S1369.8,923.6,1380.1,923.6z M1380.1,929.4c-6.1,0-9.1,4.2-9.1,9.3s3,9.3,9.1,9.3c6,0,9-4.2,9-9.3S1386.1,929.4,1380.1,929.4z"/>
		<path class="st2" d="M1400.1,953.2v-29h11.9c5.6,0,11.5,2.1,11.5,9.5c0,5-2.8,7.5-6.3,8.6l8.7,11h-7.2l-7.8-10.2h-4.6v10.2
			L1400.1,953.2L1400.1,953.2z M1406.3,937.9h6c2.6,0,4.9-1.2,4.9-4.1c0-3-2.3-4.1-4.9-4.1h-6V937.9z"/>
		<path class="st2" d="M1442.8,923.6c10.3,0,15.4,7.2,15.4,15.1s-5.1,15.1-15.4,15.1c-10.3,0-15.4-7.2-15.4-15.1
			S1432.5,923.6,1442.8,923.6z M1442.8,929.4c-6.1,0-9.1,4.2-9.1,9.3s3,9.3,9.1,9.3c6,0,9-4.2,9-9.3S1448.8,929.4,1442.8,929.4z"/>
		<path class="st2" d="M1483.3,924.2v5.6h-8.9v23.4h-6.2v-23.4h-8.9v-5.6H1483.3z"/>
		<path class="st2" d="M1499,936.3v4.9h-15.4v-4.9H1499z"/>
		<path class="st2" d="M1504.6,953.2v-29h6.2v11.5h4.7l7.3-11.5h6.9l-9.4,14.1l9.9,14.9h-6.9l-7.9-11.9h-4.7v11.9H1504.6z"/>
		<path class="st2" d="M1545.6,923.6c10.3,0,15.4,7.2,15.4,15.1s-5.1,15.1-15.4,15.1s-15.4-7.2-15.4-15.1S1535.3,923.6,1545.6,923.6
			z M1545.6,929.4c-6.1,0-9.1,4.2-9.1,9.3s3,9.3,9.1,9.3c6,0,9-4.2,9-9.3S1551.6,929.4,1545.6,929.4z"/>
		<path class="st2" d="M1597,924.2v29h-6.2v-17.9l-7.7,11.7h-3.6l-7.7-11.7v17.9h-6.2v-29h5.8l9.9,15.1l9.9-15.1H1597z"/>
		<path class="st2" d="M1634.6,924.2v29h-6.2v-17.9l-7.7,11.7h-3.6l-7.7-11.7v17.9h-6.2v-29h5.8l9.9,15.1l9.9-15.1H1634.6z"/>
		<path class="st2" d="M1666,924.2v18.1c0,8.6-6.3,11.5-12.7,11.5s-12.7-2.9-12.7-11.5v-18.1h6.2V942c0,4.6,2.7,6.2,6.5,6.2
			c3.9,0,6.6-1.6,6.6-6.2v-17.8H1666z"/>
		<path class="st2" d="M1671.9,953.2v-29h5.8l13.5,19c-0.1-1.2-0.1-2.7-0.1-4v-15h6.2v29h-5.8l-13.5-19c0.1,1.2,0.1,2.7,0.1,4v15
			H1671.9z"/>
		<path class="st2" d="M1709.8,924.2v29h-6.2v-29H1709.8z"/>
		<path class="st2" d="M1716.1,953.2v-29h6.2v11.5h4.7l7.3-11.5h6.9l-9.4,14.1l9.9,14.9h-6.9l-7.9-11.9h-4.7v11.9H1716.1z"/>
		<path class="st2" d="M1741.7,953.2l11.9-29h6.7l11.8,29h-6.4l-2.1-5.4h-13.3l-2.2,5.4H1741.7z M1752.3,942.6h9.4l-4.1-10.4
			c-0.2-0.6-0.4-1.2-0.6-2.3c-0.2,1.1-0.4,1.7-0.7,2.3L1752.3,942.6z"/>
		<path class="st2" d="M1784.1,923.6c3.4,0,6.9,0.8,9.4,2.2v5.8c-2.4-1.7-5.7-2.6-9-2.6c-3.2,0-4.7,0.9-4.7,2.7
			c0,5,15.9,3.2,15.9,13.5c0,6.5-5.2,8.5-11.3,8.5c-4,0-7.8-1-10.7-2.6v-5.9c3.3,2.2,7,3.1,10.3,3.1c3.4,0,5.4-0.7,5.4-2.8
			c0-5.4-15.9-3.4-15.9-13.7C1773.4,926.3,1778.3,923.6,1784.1,923.6z"/>
		<path class="st2" d="M1806.1,924.2v29h-6.2v-29H1806.1z"/>
		<path class="st2" d="M1820.7,953.2v-10.3l-11.4-18.7h7l7.4,13l7.4-13h7l-11.3,18.7v10.3H1820.7z"/>
		<path class="st2" d="M1834.7,953.2l11.9-29h6.7l11.8,29h-6.4l-2.1-5.4h-13.3l-2.2,5.4H1834.7z M1845.2,942.6h9.4l-4.1-10.4
			c-0.2-0.6-0.4-1.2-0.6-2.3c-0.2,1.1-0.4,1.7-0.7,2.3L1845.2,942.6z"/>
	</g>
	<g class="st1">
		<path class="st2" d="M501.1,1004v7.7h-12.3v32.3h-8.5v-32.3H468v-7.7L501.1,1004L501.1,1004z"/>
		<path class="st2" d="M534.2,1004v7.5h-19.6v8.5h17.9v7.5h-17.9v8.9h19.9v7.5h-28.5v-40L534.2,1004L534.2,1004z"/>
		<path class="st2" d="M536.7,1043.9l14.3-20.7l-13.5-19.2h10l8.8,13.1l8.8-13.1h10l-13.5,19.2l14.3,20.7h-10l-9.7-14.6l-9.7,14.6
			H536.7z"/>
		<path class="st2" d="M580,1043.9v-40h8l18.6,26.1c-0.1-1.7-0.2-3.7-0.2-5.5V1004h8.6v40h-8l-18.6-26.1c0.1,1.7,0.2,3.7,0.2,5.5
			v20.6H580z"/>
		<path class="st2" d="M642.7,1003.2c14.2,0,21.2,9.9,21.2,20.8s-7.1,20.8-21.2,20.8s-21.2-9.9-21.2-20.8S628.5,1003.2,642.7,1003.2
			z M642.7,1011.1c-8.3,0-12.5,5.8-12.5,12.8c0,7,4.2,12.8,12.5,12.8c8.3,0,12.5-5.8,12.5-12.8
			C655.1,1016.9,651,1011.1,642.7,1011.1z"/>
		<path class="st2" d="M678.8,1004v32.3h19.6v7.7h-28.2v-40H678.8z"/>
		<path class="st2" d="M721,1003.2c14.2,0,21.2,9.9,21.2,20.8s-7.1,20.8-21.2,20.8s-21.2-9.9-21.2-20.8S706.9,1003.2,721,1003.2z
			 M721,1011.1c-8.3,0-12.5,5.8-12.5,12.8c0,7,4.2,12.8,12.5,12.8c8.3,0,12.5-5.8,12.5-12.8C733.5,1016.9,729.3,1011.1,721,1011.1z"
			/>
		<path class="st2" d="M768.2,1003.2c4.3,0,8.6,0.9,12.3,2.6v8.2c-3-2-7.1-3.1-11.1-3.1c-7.1,0-14.2,3.8-14.2,13.1
			c0,10.6,7.8,13.3,13.7,13.3c1.7,0,3.2-0.3,4.4-0.7v-14.3h8.2v19.8c-4,1.7-8.6,2.7-13,2.7c-11.2,0-22-6.1-22-20.8
			C746.4,1009.5,757.2,1003.2,768.2,1003.2z"/>
		<path class="st2" d="M797.2,1004v40h-8.6v-40H797.2z"/>
		<path class="st2" d="M817.3,1043.9v-14.2l-15.6-25.8h9.7l10.2,17.9l10.2-17.9h9.7l-15.6,25.8v14.2H817.3z"/>
		<path class="st2" d="M836.6,1043.9l16.3-40h9.3l16.3,40h-8.8l-2.9-7.5h-18.3l-3,7.5H836.6z M851.1,1029.4H864l-5.6-14.3
			c-0.3-0.8-0.6-1.6-0.9-3.1c-0.3,1.5-0.6,2.3-0.9,3.1L851.1,1029.4z"/>
		<path class="st2" d="M891.5,1004v32.3h19.6v7.7h-28.2v-40H891.5z"/>
		<path class="st2" d="M912,1043.9l16.3-40h9.3l16.3,40H945l-2.9-7.5h-18.3l-3,7.5H912z M926.5,1029.4h12.9l-5.6-14.3
			c-0.3-0.8-0.6-1.6-0.9-3.1c-0.3,1.5-0.6,2.3-0.9,3.1L926.5,1029.4z"/>
		<path class="st2" d="M958.3,1043.9v-40h16.4c7.8,0,15.9,2.9,15.9,13c0,6.8-3.9,10.3-8.7,11.9l11.9,15.1h-9.9l-10.8-14h-6.3v14
			L958.3,1043.9L958.3,1043.9z M966.8,1022.8h8.3c3.6,0,6.7-1.6,6.7-5.7c0-4.1-3.1-5.7-6.7-5.7h-8.3V1022.8z"/>
		<path class="st2" d="M1007.1,1004v40h-8.6v-40H1007.1z"/>
		<path class="st2" d="M1050.3,1043.9v-14.2l-15.6-25.8h9.7l10.2,17.9l10.2-17.9h9.7l-15.6,25.8v14.2H1050.3z"/>
		<path class="st2" d="M1094.8,1003.2c14.2,0,21.2,9.9,21.2,20.8s-7.1,20.8-21.2,20.8s-21.2-9.9-21.2-20.8
			S1080.6,1003.2,1094.8,1003.2z M1094.8,1011.1c-8.3,0-12.5,5.8-12.5,12.8c0,7,4.2,12.8,12.5,12.8c8.3,0,12.4-5.8,12.4-12.8
			C1107.2,1016.9,1103.1,1011.1,1094.8,1011.1z"/>
		<path class="st2" d="M1120.1,1019.3l3.6-15.4h8.4l-5.6,15.4H1120.1z"/>
		<path class="st2" d="M1137.1,1043.9v-40h8.1l18.6,26.1c-0.1-1.7-0.2-3.7-0.2-5.5V1004h8.6v40h-8.1l-18.6-26.1
			c0.1,1.7,0.2,3.7,0.2,5.5v20.6H1137.1z"/>
		<path class="st2" d="M1176.6,1043.9l16.3-40h9.3l16.3,40h-8.8l-2.9-7.5h-18.3l-3,7.5H1176.6z M1191.1,1029.4h12.9l-5.6-14.3
			c-0.3-0.8-0.6-1.6-0.9-3.1c-0.3,1.5-0.6,2.3-0.9,3.1L1191.1,1029.4z"/>
		<path class="st2" d="M1231.5,1004v32.3h19.6v7.7h-28.2v-40H1231.5z"/>
		<path class="st2" d="M1264.7,1004v40h-8.6v-40H1264.7z"/>
		<path class="st2" d="M1286.1,1003.2c4.7,0,9.5,1.1,13,3.1v8c-3.4-2.4-7.9-3.6-12.3-3.5c-4.3,0.1-6.5,1.3-6.5,3.7
			c0,6.9,21.9,4.3,21.9,18.6c0,9-7.2,11.8-15.6,11.8c-5.5,0-10.7-1.3-14.8-3.6v-8.2c4.6,3,9.6,4.2,14.2,4.2c4.6,0,7.5-1,7.5-3.8
			c0-7.5-21.9-4.7-21.9-18.8C1271.4,1006.8,1278.2,1003.2,1286.1,1003.2z"/>
		<path class="st2" d="M1342.9,1004v40h-8.6v-16.1h-17.9v16.1h-8.6v-40h8.6v16.1h17.9V1004H1342.9z"/>
		<path class="st2" d="M1360,1004v40h-8.6v-40H1360z"/>
		<path class="st2" d="M1388.1,1003.2c4.3,0,8.6,0.9,12.3,2.6v8.2c-3-2-7.1-3.1-11.1-3.1c-7.1,0-14.2,3.8-14.2,13.1
			c0,10.6,7.8,13.3,13.7,13.3c1.7,0,3.2-0.3,4.4-0.7v-14.3h8.2v19.8c-4,1.7-8.6,2.7-13,2.7c-11.2,0-22-6.1-22-20.8
			C1366.4,1009.5,1377.2,1003.2,1388.1,1003.2z"/>
		<path class="st2" d="M1404.2,1043.9l16.3-40h9.3l16.3,40h-8.8l-2.9-7.5H1416l-3,7.5H1404.2z M1418.7,1029.4h12.9l-5.6-14.3
			c-0.3-0.8-0.6-1.6-0.9-3.1c-0.3,1.5-0.6,2.3-0.9,3.1L1418.7,1029.4z"/>
		<path class="st2" d="M1480.5,1003.2c14.2,0,21.2,9.9,21.2,20.8s-7.1,20.8-21.2,20.8s-21.2-9.9-21.2-20.8
			S1466.4,1003.2,1480.5,1003.2z M1480.5,1011.1c-8.3,0-12.5,5.8-12.5,12.8c0,7,4.2,12.8,12.5,12.8c8.3,0,12.4-5.8,12.4-12.8
			C1493,1016.9,1488.8,1011.1,1480.5,1011.1z"/>
		<path class="st2" d="M1516.7,1004v40h-8.6v-40H1516.7z"/>
		<path class="st2" d="M1540.2,1004c14.2,0,20.9,8.4,20.9,20s-6.7,20-20.9,20h-15v-40L1540.2,1004L1540.2,1004z M1540.2,1011.5h-6.4
			v24.9h6.4c7.9,0,12.2-4.2,12.2-12.5S1548.1,1011.5,1540.2,1011.5z"/>
		<path class="st2" d="M1608.4,1004v7.7h-19.6v9.3h18v7.7h-18v15.2h-8.6v-40H1608.4z"/>
		<path class="st2" d="M1607.4,1043.9l16.3-40h9.3l16.3,40h-8.8l-2.9-7.5h-18.3l-3,7.5H1607.4z M1621.9,1029.4h12.9l-5.6-14.3
			c-0.3-0.8-0.6-1.6-0.9-3.1c-0.3,1.5-0.6,2.3-0.9,3.1L1621.9,1029.4z"/>
		<path class="st2" d="M1653.7,1043.9v-40h8.1l18.6,26.1c-0.1-1.7-0.2-3.7-0.2-5.5V1004h8.6v40h-8.1l-18.6-26.1
			c0.1,1.7,0.2,3.7,0.2,5.5v20.6H1653.7z"/>
		<path class="st2" d="M1705.8,1004v32.3h19.6v7.7h-28.2v-40H1705.8z"/>
		<path class="st2" d="M1726.3,1043.9l16.3-40h9.3l16.3,40h-8.8l-2.9-7.5h-18.3l-3,7.5H1726.3z M1740.8,1029.4h12.9l-5.6-14.3
			c-0.3-0.8-0.6-1.6-0.9-3.1c-0.3,1.5-0.6,2.3-0.9,3.1L1740.8,1029.4z"/>
		<path class="st2" d="M1772.6,1043.9v-40h16.4c7.8,0,15.9,2.9,15.9,13c0,6.8-3.9,10.3-8.7,11.9l11.9,15.1h-9.9l-10.8-14h-6.3v14
			L1772.6,1043.9L1772.6,1043.9z M1781.2,1022.8h8.3c3.6,0,6.7-1.6,6.7-5.7c0-4.1-3.1-5.7-6.7-5.7h-8.3V1022.8z"/>
		<path class="st2" d="M1812.9,1043.9v-40h8.1l18.6,26.1c-0.1-1.7-0.2-3.7-0.2-5.5V1004h8.6v40h-8.1l-18.6-26.1
			c0.1,1.7,0.2,3.7,0.2,5.5v20.6H1812.9z"/>
		<path class="st2" d="M1865.1,1004v40h-8.6v-40H1865.1z"/>
	</g>
	<g class="st1">
		<path class="st2" d="M484.5,1092.3c3.1,0,6.1,0.7,8.8,2v6.3c-2-1.5-4.8-2.4-7.7-2.4c-5.4,0-10.8,3.1-10.8,10.5
			c0,6.7,5.5,9.7,10.8,9.7c3.1,0,6-0.9,7.9-2.5v6.4c-2.6,1.3-5.6,2-8.9,2c-8.2,0-16.5-4.9-16.5-15.6
			C468,1097.4,476.3,1092.3,484.5,1092.3z"/>
		<path class="st2" d="M525.2,1092.9v30.6h-6.6v-12.3h-13.7v12.3h-6.6v-30.6h6.6v12.3h13.8v-12.3H525.2z"/>
		<path class="st2" d="M558.3,1092.9v19.1c0,9.1-6.7,12.1-13.4,12.1s-13.4-3.1-13.4-12.1v-19.1h6.6v18.8c0,4.9,2.8,6.6,6.9,6.6
			c4.1,0,6.9-1.7,6.9-6.6v-18.8H558.3z"/>
		<path class="st2" d="M591,1126.1l-3.8-3.8c-2.2,1.1-5,1.8-8.1,1.8c-10.9,0-16.3-7.6-16.3-15.9s5.4-15.9,16.3-15.9
			c10.9,0,16.3,7.6,16.3,15.9c0,3.8-1.2,7.5-3.5,10.4l3.5,3.5L591,1126.1z M579.2,1118.1c1.2,0,2.3-0.2,3.2-0.6l-3.7-3.7l4.2-4.2
			l4.2,4.2c1-1.6,1.6-3.6,1.6-5.6c0-5.4-3.2-9.9-9.5-9.9c-6.4,0-9.6,4.6-9.6,9.9S572.8,1118.1,579.2,1118.1z"/>
		<path class="st2" d="M626.9,1092.9v19.1c0,9.1-6.7,12.1-13.4,12.1s-13.4-3.1-13.4-12.1v-19.1h6.6v18.8c0,4.9,2.8,6.6,6.9,6.6
			c4.1,0,6.9-1.7,6.9-6.6v-18.8H626.9z"/>
		<path class="st2" d="M633.1,1123.5v-30.6h12.6c6,0,12.2,2.2,12.2,10c0,5.3-3,7.9-6.7,9.1l9.2,11.6h-7.6l-8.3-10.7h-4.8v10.7H633.1
			z M639.7,1107.3h6.3c2.8,0,5.2-1.2,5.2-4.3c0-3.2-2.4-4.3-5.2-4.3h-6.3V1107.3z"/>
		<path class="st2" d="M670.6,1092.9v24.7h15v5.9H664v-30.6H670.6z"/>
		<path class="st2" d="M686.3,1123.5l12.5-30.6h7.1l12.5,30.6h-6.8l-2.2-5.7h-14l-2.3,5.7H686.3z M697.4,1112.4h9.9l-4.3-11
			c-0.2-0.6-0.4-1.2-0.7-2.4c-0.2,1.2-0.4,1.8-0.7,2.4L697.4,1112.4z"/>
		<path class="st2" d="M731,1092.3c3.6,0,7.3,0.9,9.9,2.4v6.1c-2.6-1.8-6-2.8-9.5-2.7c-3.3,0-5,1-5,2.8c0,5.3,16.8,3.3,16.8,14.2
			c0,6.9-5.5,9-12,9c-4.3,0-8.2-1-11.3-2.8v-6.3c3.5,2.3,7.3,3.2,10.9,3.2c3.5,0,5.7-0.7,5.7-2.9c0-5.7-16.8-3.6-16.8-14.4
			C719.8,1095.1,725,1092.3,731,1092.3z"/>
		<path class="st2" d="M774.5,1092.9v30.6H768v-12.3h-13.8v12.3h-6.6v-30.6h6.6v12.3H768v-12.3H774.5z"/>
		<path class="st2" d="M803.7,1092.9v5.9h-9.4v24.7h-6.5v-24.7h-9.4v-5.9H803.7z"/>
		<path class="st2" d="M814.2,1092.9v30.6h-6.6v-30.6H814.2z"/>
		<path class="st2" d="M820.7,1123.5v-30.6h12.6c6,0,12.2,2.2,12.2,10c0,5.3-3,7.9-6.7,9.1l9.2,11.6h-7.6l-8.3-10.7h-4.8v10.7H820.7
			z M827.3,1107.3h6.3c2.8,0,5.2-1.2,5.2-4.3c0-3.2-2.4-4.3-5.2-4.3h-6.3V1107.3z"/>
		<path class="st2" d="M858.2,1092.9v30.6h-6.6v-30.6H858.2z"/>
		<path class="st2" d="M878.1,1092.9c6.5,0,10.6,2.5,10.6,7.8c0,3.6-1.9,5.8-4.6,6.7c3,0.9,5.9,3.1,5.9,7.6c0,7-6.7,8.6-12,8.6
			h-13.2v-30.6L878.1,1092.9L878.1,1092.9z M878.2,1110.3h-6.9v7.9h6.6c2.9,0,5.6-0.6,5.6-3.9C883.4,1111,880.8,1110.3,878.2,1110.3
			z M877.6,1098.3h-6.3v7h6.6c2.5,0,4.3-1.1,4.3-3.5C882.2,1099.4,880.5,1098.3,877.6,1098.3z"/>
		<path class="st2" d="M919,1092.3c10.9,0,16.3,7.6,16.3,15.9s-5.4,15.9-16.3,15.9s-16.3-7.6-16.3-15.9S908.2,1092.3,919,1092.3z
			 M919,1098.4c-6.4,0-9.6,4.5-9.6,9.8s3.2,9.8,9.6,9.8c6.3,0,9.5-4.5,9.5-9.8S925.4,1098.4,919,1098.4z"/>
		<path class="st2" d="M938.4,1104.7l2.8-11.8h6.4l-4.3,11.8H938.4z"/>
		<path class="st2" d="M977.2,1126.1l-3.8-3.8c-2.2,1.1-5,1.8-8.1,1.8c-10.9,0-16.3-7.6-16.3-15.9s5.4-15.9,16.3-15.9
			c10.9,0,16.3,7.6,16.3,15.9c0,3.8-1.2,7.5-3.5,10.4l3.5,3.5L977.2,1126.1z M965.3,1118.1c1.2,0,2.3-0.2,3.2-0.6l-3.7-3.7l4.2-4.2
			l4.2,4.2c1-1.6,1.6-3.6,1.6-5.6c0-5.4-3.2-9.9-9.5-9.9c-6.4,0-9.6,4.6-9.6,9.9S958.9,1118.1,965.3,1118.1z"/>
		<path class="st2" d="M993,1092.9v30.6h-6.6v-30.6H993z"/>
		<path class="st2" d="M1022.2,1092.9v5.9h-9.4v24.7h-6.5v-24.7h-9.4v-5.9H1022.2z"/>
		<path class="st2" d="M1032.6,1092.9v30.6h-6.6v-30.6H1032.6z"/>
		<path class="st2" d="M1049,1092.3c3.6,0,7.3,0.9,9.9,2.4v6.1c-2.6-1.8-6-2.8-9.5-2.7c-3.3,0-5,1-5,2.8c0,5.3,16.8,3.3,16.8,14.2
			c0,6.9-5.5,9-11.9,9c-4.3,0-8.2-1-11.3-2.8v-6.3c3.5,2.3,7.3,3.2,10.9,3.2c3.6,0,5.7-0.7,5.7-2.9c0-5.7-16.8-3.6-16.8-14.4
			C1037.8,1095.1,1043,1092.3,1049,1092.3z"/>
		<path class="st2" d="M1092.6,1092.9v30.6h-6.6v-12.3h-13.8v12.3h-6.6v-30.6h6.6v12.3h13.8v-12.3H1092.6z"/>
		<path class="st2" d="M1114.2,1092.3c3.3,0,6.6,0.7,9.4,2v6.3c-2.3-1.5-5.4-2.4-8.5-2.4c-5.5,0-10.9,2.9-10.9,10.1
			c0,8.1,6,10.2,10.5,10.2c1.3,0,2.4-0.2,3.4-0.6v-10.9h6.3v15.2c-3.1,1.3-6.6,2.1-10,2.1c-8.6,0-16.8-4.7-16.8-15.9
			C1097.5,1097.1,1105.8,1092.3,1114.2,1092.3z"/>
		<path class="st2" d="M1126.5,1123.5l12.5-30.6h7.1l12.5,30.6h-6.8l-2.2-5.7h-14l-2.3,5.7H1126.5z M1137.6,1112.4h9.9l-4.3-11
			c-0.2-0.6-0.4-1.2-0.7-2.4c-0.2,1.2-0.4,1.8-0.7,2.4L1137.6,1112.4z"/>
		<path class="st2" d="M1186.7,1092.9v30.6h-6.6v-30.6H1186.7z"/>
		<path class="st2" d="M1189.7,1123.5l11-15.9l-10.3-14.8h7.7l6.8,10.1l6.7-10.1h7.7l-10.3,14.8l11,15.9h-7.7l-7.4-11.2l-7.4,11.2
			H1189.7z"/>
		<path class="st2" d="M1245.6,1092.9v5.9h-9.4v24.7h-6.5v-24.7h-9.4v-5.9H1245.6z"/>
		<path class="st2" d="M1256,1092.9v30.6h-6.6v-30.6H1256z"/>
		<path class="st2" d="M1272.4,1092.3c3.6,0,7.3,0.9,9.9,2.4v6.1c-2.6-1.8-6-2.8-9.5-2.7c-3.3,0-5,1-5,2.8c0,5.3,16.8,3.3,16.8,14.2
			c0,6.9-5.5,9-11.9,9c-4.3,0-8.2-1-11.3-2.8v-6.3c3.5,2.3,7.3,3.2,10.9,3.2c3.6,0,5.7-0.7,5.7-2.9c0-5.7-16.8-3.6-16.8-14.4
			C1261.2,1095.1,1266.4,1092.3,1272.4,1092.3z"/>
		<path class="st2" d="M1303.7,1092.3c10.9,0,16.3,7.6,16.3,15.9s-5.4,15.9-16.3,15.9s-16.3-7.6-16.3-15.9
			S1292.8,1092.3,1303.7,1092.3z M1303.7,1098.4c-6.4,0-9.6,4.5-9.6,9.8s3.2,9.8,9.6,9.8c6.3,0,9.5-4.5,9.5-9.8
			S1310,1098.4,1303.7,1098.4z"/>
		<path class="st2" d="M1334.6,1092.3c3.6,0,7.3,0.9,9.9,2.4v6.1c-2.6-1.8-6-2.8-9.5-2.7c-3.3,0-5,1-5,2.8c0,5.3,16.8,3.3,16.8,14.2
			c0,6.9-5.5,9-11.9,9c-4.3,0-8.2-1-11.3-2.8v-6.3c3.5,2.3,7.3,3.2,10.9,3.2c3.6,0,5.7-0.7,5.7-2.9c0-5.7-16.8-3.6-16.8-14.4
			C1323.4,1095.1,1328.6,1092.3,1334.6,1092.3z"/>
		<path class="st2" d="M1357.9,1092.9v24.7h15v5.9h-21.6v-30.6H1357.9z"/>
		<path class="st2" d="M1373.6,1123.5l12.5-30.6h7.1l12.5,30.6h-6.8l-2.2-5.7h-14l-2.3,5.7H1373.6z M1384.7,1112.4h9.9l-4.3-11
			c-0.2-0.6-0.4-1.2-0.7-2.4c-0.2,1.2-0.4,1.8-0.7,2.4L1384.7,1112.4z"/>
		<path class="st2" d="M1418.3,1092.3c3.6,0,7.3,0.9,9.9,2.4v6.1c-2.6-1.8-6-2.8-9.5-2.7c-3.3,0-5,1-5,2.8c0,5.3,16.8,3.3,16.8,14.2
			c0,6.9-5.5,9-11.9,9c-4.3,0-8.2-1-11.3-2.8v-6.3c3.5,2.3,7.3,3.2,10.9,3.2c3.6,0,5.7-0.7,5.7-2.9c0-5.7-16.8-3.6-16.8-14.4
			C1407.1,1095.1,1412.2,1092.3,1418.3,1092.3z"/>
		<path class="st2" d="M1461.8,1092.9v30.6h-6.6v-12.3h-13.8v12.3h-6.6v-30.6h6.6v12.3h13.8v-12.3H1461.8z"/>
		<path class="st2" d="M1491,1092.9v5.9h-9.4v24.7h-6.5v-24.7h-9.4v-5.9H1491z"/>
		<path class="st2" d="M1501.4,1092.9v30.6h-6.6v-30.6H1501.4z"/>
		<path class="st2" d="M1508,1123.5v-30.6h12.6c5.9,0,12.2,2.2,12.2,10c0,5.3-3,7.9-6.7,9.1l9.2,11.6h-7.6l-8.3-10.7h-4.8v10.7H1508
			z M1514.6,1107.3h6.3c2.8,0,5.2-1.2,5.2-4.3c0-3.2-2.4-4.3-5.2-4.3h-6.3V1107.3z"/>
		<path class="st2" d="M1545.4,1092.9v30.6h-6.6v-30.6H1545.4z"/>
		<path class="st2" d="M1558.6,1092.9v24.7h15v5.9H1552v-30.6H1558.6z"/>
		<path class="st2" d="M1591.4,1092.3c3.3,0,6.6,0.7,9.4,2v6.3c-2.3-1.5-5.4-2.4-8.5-2.4c-5.5,0-10.9,2.9-10.9,10.1
			c0,8.1,6,10.2,10.5,10.2c1.3,0,2.4-0.2,3.4-0.6v-10.9h6.3v15.2c-3.1,1.3-6.6,2.1-10,2.1c-8.6,0-16.8-4.7-16.8-15.9
			C1574.7,1097.1,1583,1092.3,1591.4,1092.3z"/>
		<path class="st2" d="M1603.7,1123.5l12.5-30.6h7.1l12.5,30.6h-6.8l-2.2-5.7h-14l-2.3,5.7H1603.7z M1614.9,1112.4h9.9l-4.3-11
			c-0.2-0.6-0.4-1.2-0.7-2.4c-0.2,1.2-0.4,1.8-0.7,2.4L1614.9,1112.4z"/>
		<path class="st2" d="M1639.2,1123.5v-30.6h6.2l14.3,20c-0.1-1.3-0.1-2.8-0.1-4.2v-15.8h6.6v30.6h-6.2l-14.3-20
			c0.1,1.3,0.1,2.8,0.1,4.2v15.8H1639.2z"/>
		<path class="st2" d="M1715.5,1092.9v30.6h-6.6v-18.9l-8.1,12.3h-3.8l-8.1-12.3v18.9h-6.6v-30.6h6.1l10.5,15.9l10.5-15.9
			L1715.5,1092.9L1715.5,1092.9z"/>
		<path class="st2" d="M1718.9,1123.5l12.5-30.6h7.1l12.5,30.6h-6.8l-2.2-5.7h-14l-2.3,5.7H1718.9z M1730.1,1112.4h9.9l-4.3-11
			c-0.2-0.6-0.4-1.2-0.7-2.4c-0.2,1.2-0.4,1.8-0.7,2.4L1730.1,1112.4z"/>
		<path class="st2" d="M1754.4,1123.5v-30.6h6.6v12.2h4.9l7.8-12.2h7.3l-9.9,14.9l10.5,15.7h-7.3l-8.4-12.5h-5v12.5L1754.4,1123.5
			L1754.4,1123.5z"/>
		<path class="st2" d="M1807.3,1092.9v5.9h-9.4v24.7h-6.5v-24.7h-9.4v-5.9H1807.3z"/>
		<path class="st2" d="M1804.4,1123.5l12.5-30.6h7.1l12.5,30.6h-6.8l-2.2-5.7h-14l-2.3,5.7H1804.4z M1815.5,1112.4h9.9l-4.3-11
			c-0.2-0.6-0.4-1.2-0.7-2.4c-0.2,1.2-0.4,1.8-0.7,2.4L1815.5,1112.4z"/>
		<path class="st2" d="M1853.3,1092.9c6.5,0,10.6,2.5,10.6,7.8c0,3.6-1.9,5.8-4.6,6.7c3,0.9,5.9,3.1,5.9,7.6c0,7-6.7,8.6-12,8.6
			h-13.2v-30.6L1853.3,1092.9L1853.3,1092.9z M1853.3,1110.3h-6.9v7.9h6.6c2.9,0,5.6-0.6,5.6-3.9
			C1858.5,1111,1855.9,1110.3,1853.3,1110.3z M1852.7,1098.3h-6.3v7h6.6c2.5,0,4.3-1.1,4.3-3.5
			C1857.3,1099.4,1855.6,1098.3,1852.7,1098.3z"/>
	</g>
</g>
</svg>
